<svg width="24" height="24" viewBox="0 0 24 24" fill="none" xmlns="http://www.w3.org/2000/svg">
<path d="M12 2C12.7956 2 13.5585 2.3163 14.1211 2.87891C14.5286 3.28642 14.8043 3.79946 14.9267 4.35352C16.0242 4.97015 16.9629 5.83884 17.664 6.89062C18.4694 8.09859 18.9309 9.50292 18.999 10.9531C18.9997 10.9687 19 10.9844 19 11V13.9258C19.0615 14.3754 19.2227 14.8057 19.4746 15.1836C19.7351 15.5744 20.0844 15.8984 20.4931 16.1299C20.8881 16.3537 21.0825 16.8158 20.9668 17.2549C20.851 17.694 20.4541 18 20 18H3.99998C3.54587 18 3.14894 17.694 3.03318 17.2549C2.9175 16.8158 3.11184 16.3537 3.50682 16.1299C3.91552 15.8984 4.26484 15.5744 4.52537 15.1836C4.7773 14.8057 4.93847 14.3754 4.99998 13.9258V11C4.99998 10.9844 5.00022 10.9687 5.00096 10.9531C5.06902 9.50292 5.5306 8.09859 6.33592 6.89062C7.03695 5.83908 7.97514 4.97013 9.07224 4.35352C9.19462 3.79938 9.47132 3.28647 9.87889 2.87891C10.4415 2.3163 11.2043 2 12 2ZM12 4C11.7348 4 11.4805 4.10543 11.2929 4.29297C11.1054 4.48051 11 4.73478 11 5C11 5.38665 10.7772 5.73897 10.4277 5.9043C9.44336 6.36975 8.60396 7.09402 7.99998 8C7.39835 8.90244 7.05312 9.95104 6.99998 11.0342V14C6.99998 14.0401 6.99796 14.0803 6.99314 14.1201C6.91287 14.7833 6.69946 15.422 6.36912 16H17.6308C17.3005 15.422 17.0871 14.7833 17.0068 14.1201C17.002 14.0803 17 14.0401 17 14V11.0342C16.9468 9.95104 16.6016 8.90244 16 8C15.396 7.09402 14.5566 6.36975 13.5722 5.9043C13.2227 5.73897 13 5.38665 13 5C13 4.73478 12.8945 4.48051 12.707 4.29297C12.5195 4.10543 12.2652 4 12 4Z" fill="black"/>
<path d="M8 18V17C8 16.4477 8.44772 16 9 16C9.55228 16 10 16.4477 10 17V18C10 18.5304 10.2109 19.039 10.5859 19.4141C10.961 19.7891 11.4696 20 12 20C12.5304 20 13.039 19.7891 13.4141 19.4141C13.7891 19.039 14 18.5304 14 18V17C14 16.4477 14.4477 16 15 16C15.5523 16 16 16.4477 16 17V18C16 19.0609 15.5783 20.078 14.8281 20.8281C14.078 21.5783 13.0609 22 12 22C10.9391 22 9.92202 21.5783 9.17188 20.8281C8.42173 20.078 8 19.0609 8 18Z" fill="black"/>
</svg>
