<svg width="24" height="24" viewBox="0 0 24 24" fill="none" xmlns="http://www.w3.org/2000/svg">
<g clip-path="url(#clip0_860_1720)">
<path d="M9.54785 4.12808C10.1719 1.55757 13.8281 1.55757 14.4521 4.12808C14.4864 4.26943 14.5539 4.40136 14.6484 4.51187C14.743 4.6224 14.8627 4.70961 14.9971 4.76529C15.1313 4.82085 15.277 4.84389 15.4219 4.83267C15.5669 4.82143 15.7078 4.7751 15.832 4.69937C18.0911 3.32367 20.6767 5.9096 19.3008 8.16959C19.2254 8.29354 19.1802 8.43362 19.1689 8.57828C19.1577 8.72306 19.1808 8.86889 19.2363 9.00308C19.2919 9.1374 19.3793 9.25713 19.4897 9.35171C19.6001 9.44615 19.7309 9.51369 19.8721 9.548C22.4426 10.1721 22.4426 13.8282 19.8721 14.4523C19.7307 14.4865 19.5988 14.554 19.4883 14.6486C19.3778 14.7432 19.2905 14.8628 19.2349 14.9972C19.1793 15.1315 19.1563 15.2771 19.1675 15.422C19.1787 15.5671 19.225 15.708 19.3008 15.8322C20.6765 18.0913 18.0905 20.6768 15.8306 19.3009C15.7066 19.2255 15.5665 19.1804 15.4219 19.1691C15.2771 19.1579 15.1313 19.181 14.9971 19.2365C14.8628 19.2921 14.743 19.3795 14.6484 19.4899C14.554 19.6002 14.4865 19.7311 14.4521 19.8722C13.8281 22.4427 10.1719 22.4427 9.54785 19.8722C9.5136 19.7309 9.44611 19.5989 9.35156 19.4884C9.25697 19.3779 9.13733 19.2907 9.00293 19.235C8.86865 19.1794 8.72301 19.1564 8.57812 19.1676C8.43308 19.1789 8.29218 19.2252 8.16797 19.3009C5.90889 20.6766 3.32332 18.0907 4.69922 15.8307C4.77463 15.7068 4.8198 15.5667 4.83105 15.422C4.84226 15.2772 4.81915 15.1314 4.76367 14.9972C4.70805 14.8629 4.62065 14.7432 4.51025 14.6486C4.39992 14.5542 4.26905 14.4866 4.12793 14.4523C1.55741 13.8282 1.55741 10.1721 4.12793 9.548C4.26927 9.51376 4.40121 9.44626 4.51172 9.35171C4.62224 9.25712 4.70945 9.13748 4.76514 9.00308C4.8207 8.86881 4.84374 8.72316 4.83252 8.57828C4.82127 8.43323 4.77495 8.29233 4.69922 8.16812C3.32397 5.90979 5.90706 3.32508 8.1665 4.69791H8.16797C8.70558 5.02477 9.39981 4.73688 9.54785 4.12808ZM12.8979 4.50601C12.684 3.62397 11.4936 3.56864 11.1577 4.34048L11.102 4.50601C10.6981 6.16715 8.79977 6.95504 7.3374 6.06607C6.50953 5.56206 5.56224 6.50927 6.06592 7.33609C6.2727 7.67533 6.39702 8.05912 6.42773 8.45523C6.45831 8.85105 6.39506 9.24859 6.24316 9.61539C6.09106 9.98251 5.85367 10.3091 5.55176 10.5675C5.25007 10.8256 4.8917 11.0086 4.50586 11.1022C3.56505 11.3304 3.56505 12.6699 4.50586 12.8981L4.79004 12.9845C5.06768 13.0878 5.32561 13.2405 5.55176 13.4342C5.85317 13.6926 6.08983 14.0181 6.2417 14.3849C6.39356 14.7517 6.4569 15.1492 6.42627 15.5451C6.39564 15.9407 6.27223 16.3238 6.06592 16.6627C5.5619 17.4906 6.50912 18.4379 7.33594 17.9342C7.67517 17.7274 8.05897 17.6031 8.45508 17.5724C8.8509 17.5418 9.24844 17.6051 9.61523 17.757C9.98236 17.9091 10.309 18.1465 10.5674 18.4484C10.8255 18.7501 11.0085 19.1085 11.102 19.4943C11.3303 20.4351 12.6697 20.4351 12.8979 19.4943L12.9844 19.2101C13.0877 18.9325 13.2403 18.6745 13.4341 18.4484C13.6924 18.147 14.018 17.9103 14.3848 17.7585C14.7516 17.6066 15.1491 17.5433 15.5449 17.5739C15.9406 17.6045 16.3236 17.7279 16.6626 17.9342C17.4905 18.4382 18.4378 17.491 17.9341 16.6642C17.7273 16.325 17.603 15.9412 17.5723 15.5451C17.5417 15.1493 17.6049 14.7517 17.7568 14.3849C17.9089 14.0178 18.1463 13.6912 18.4482 13.4328C18.7499 13.1747 19.1083 12.9917 19.4941 12.8981C20.3762 12.6841 20.4315 11.4938 19.6597 11.1579L19.4941 11.1022C19.1083 11.0084 18.7498 10.8244 18.4482 10.5661C18.1468 10.3077 17.9102 9.98216 17.7583 9.61539C17.6064 9.24856 17.5431 8.85107 17.5737 8.45523C17.6044 8.05958 17.7278 7.67653 17.9341 7.33755C18.4381 6.50969 17.4909 5.56239 16.6641 6.06607C16.3248 6.27286 15.941 6.39717 15.5449 6.42789C15.1491 6.45846 14.7516 6.39521 14.3848 6.24332C14.0176 6.09121 13.691 5.85382 13.4326 5.55191C13.1745 5.25022 12.9915 4.89185 12.8979 4.50601Z" fill="black"/>
<path d="M14.2002 12C14.2002 11.4165 13.9682 10.8569 13.5557 10.4443C13.1431 10.0318 12.5835 9.7998 12 9.7998C11.4165 9.7998 10.8569 10.0318 10.4443 10.4443C10.0318 10.8569 9.7998 11.4165 9.7998 12C9.7998 12.5835 10.0318 13.1431 10.4443 13.5557C10.8569 13.9682 11.4165 14.2002 12 14.2002C12.5835 14.2002 13.1431 13.9682 13.5557 13.5557C13.9682 13.1431 14.2002 12.5835 14.2002 12ZM15.7998 12C15.7998 13.0078 15.3992 13.9739 14.6865 14.6865C13.9739 15.3992 13.0078 15.7998 12 15.7998C10.9922 15.7998 10.0261 15.3992 9.31348 14.6865C8.60084 13.9739 8.2002 13.0078 8.2002 12C8.2002 10.9922 8.60084 10.0261 9.31348 9.31348C10.0261 8.60084 10.9922 8.2002 12 8.2002C13.0078 8.2002 13.9739 8.60084 14.6865 9.31348C15.3992 10.0261 15.7998 10.9922 15.7998 12Z" fill="black"/>
</g>
<defs>
<clipPath id="clip0_860_1720">
<rect width="24" height="24" fill="white"/>
</clipPath>
</defs>
</svg>
