<svg width="24" height="24" viewBox="0 0 24 24" fill="none" xmlns="http://www.w3.org/2000/svg">
<g clip-path="url(#clip0_860_1724)">
<path d="M19 11C19.5523 11 20 11.4477 20 12C20 12.5523 19.5523 13 19 13H5C4.44772 13 4 12.5523 4 12C4 11.4477 4.44772 11 5 11H19Z" fill="black"/>
<path d="M18.293 11.2929C18.6835 10.9024 19.3166 10.9024 19.7071 11.2929C20.0976 11.6834 20.0976 12.3164 19.7071 12.707L13.7071 18.707C13.3166 19.0975 12.6835 19.0975 12.293 18.707C11.9025 18.3164 11.9025 17.6834 12.293 17.2929L18.293 11.2929Z" fill="black"/>
<path d="M12.293 5.29289C12.6835 4.90237 13.3166 4.90237 13.7071 5.29289L19.7071 11.2929C20.0976 11.6834 20.0976 12.3164 19.7071 12.707C19.3166 13.0975 18.6835 13.0975 18.293 12.707L12.293 6.70696C11.9025 6.31643 11.9025 5.68342 12.293 5.29289Z" fill="black"/>
</g>
<defs>
<clipPath id="clip0_860_1724">
<rect width="24" height="24" fill="white"/>
</clipPath>
</defs>
</svg>
