<svg width="24" height="24" viewBox="0 0 24 24" fill="none" xmlns="http://www.w3.org/2000/svg">
<g clip-path="url(#clip0_860_1722)">
<path d="M7.70705 17.7071C7.31652 18.0976 6.68351 18.0976 6.29298 17.7071C5.90246 17.3166 5.90246 16.6836 6.29298 16.293L16.293 6.29304C16.6835 5.90252 17.3165 5.90252 17.707 6.29304C18.0976 6.68357 18.0976 7.31658 17.707 7.70711L7.70705 17.7071Z" fill="black"/>
<path d="M18 16C18 16.5523 17.5523 17 17 17C16.4477 17 16 16.5523 16 16V8H8C7.44771 8 7 7.55229 7 7C7 6.44771 7.44771 6 8 6H17C17.5523 6 18 6.44771 18 7V16Z" fill="black"/>
</g>
<defs>
<clipPath id="clip0_860_1722">
<rect width="24" height="24" fill="white" transform="matrix(-1 0 0 -1 24 24)"/>
</clipPath>
</defs>
</svg>
