<svg width="24" height="24" viewBox="0 0 24 24" fill="none" xmlns="http://www.w3.org/2000/svg">
<g clip-path="url(#clip0_860_1726)">
<path d="M21 16C21.5523 16 22 16.4477 22 17C22 17.5523 21.5523 18 21 18H3C2.44772 18 2 17.5523 2 17C2 16.4477 2.44772 16 3 16H21Z" fill="black"/>
<path d="M5.29297 3.29289C5.68349 2.90237 6.31651 2.90237 6.70703 3.29289C7.09756 3.68342 7.09756 4.31643 6.70703 4.70696L4.41406 6.99992L6.70703 9.29289C7.09756 9.68342 7.09756 10.3164 6.70703 10.707C6.31651 11.0975 5.68349 11.0975 5.29297 10.707L2.29297 7.70696C1.90245 7.31643 1.90245 6.68342 2.29297 6.29289L5.29297 3.29289Z" fill="black"/>
<path d="M21 6C21.5523 6 22 6.44772 22 7C22 7.55228 21.5523 8 21 8H3C2.44772 8 2 7.55228 2 7C2 6.44772 2.44772 6 3 6H21Z" fill="black"/>
<path d="M17.293 13.2929C17.6835 12.9024 18.3165 12.9024 18.707 13.2929L21.707 16.2929C22.0976 16.6834 22.0976 17.3164 21.707 17.707L18.707 20.707C18.3165 21.0975 17.6835 21.0975 17.293 20.707C16.9024 20.3164 16.9024 19.6834 17.293 19.2929L19.5859 16.9999L17.293 14.707C16.9024 14.3164 16.9024 13.6834 17.293 13.2929Z" fill="black"/>
</g>
<defs>
<clipPath id="clip0_860_1726">
<rect width="24" height="24" fill="white"/>
</clipPath>
</defs>
</svg>
