<svg width="24" height="24" viewBox="0 0 24 24" fill="none" xmlns="http://www.w3.org/2000/svg">
<path d="M20 9.66699C20 9.44814 19.9568 9.23149 19.873 9.0293C19.7893 8.82705 19.6665 8.64308 19.5117 8.48828C19.3569 8.33349 19.173 8.21073 18.9707 8.12695C18.7685 8.04323 18.5519 8 18.333 8H9.66699C9.22488 8 8.8009 8.17566 8.48828 8.48828C8.17566 8.8009 8 9.22488 8 9.66699V18.333C8 18.5519 8.04323 18.7685 8.12695 18.9707C8.21073 19.173 8.33349 19.3569 8.48828 19.5117C8.64308 19.6665 8.82705 19.7893 9.0293 19.873C9.23149 19.9568 9.44814 20 9.66699 20H18.333C18.5519 20 18.7685 19.9568 18.9707 19.873C19.1729 19.7893 19.3569 19.6665 19.5117 19.5117C19.6665 19.3569 19.7893 19.1729 19.873 18.9707C19.9568 18.7685 20 18.5519 20 18.333V9.66699ZM22 18.333C22 18.8146 21.905 19.2914 21.7207 19.7363C21.5364 20.1812 21.2663 20.5853 20.9258 20.9258C20.5853 21.2663 20.1812 21.5364 19.7363 21.7207C19.2914 21.905 18.8146 22 18.333 22H9.66699C9.18544 22 8.70857 21.905 8.26367 21.7207C7.8188 21.5364 7.41471 21.2663 7.07422 20.9258C6.73373 20.5853 6.46358 20.1812 6.2793 19.7363C6.09501 19.2914 6 18.8146 6 18.333V9.66699C6 8.69445 6.38652 7.76191 7.07422 7.07422C7.76191 6.38652 8.69445 6 9.66699 6H18.333C18.8146 6 19.2914 6.09501 19.7363 6.2793C20.1812 6.46358 20.5853 6.73373 20.9258 7.07422C21.2663 7.41471 21.5364 7.8188 21.7207 8.26367C21.905 8.70857 22 9.18544 22 9.66699V18.333Z" fill="black"/>
<path d="M2 5C2 3.34772 3.34772 2 5 2H15C15.5623 2 16.0628 2.14977 16.4902 2.45996C16.896 2.75447 17.1695 3.14597 17.374 3.51367C17.6424 3.99627 17.4688 4.60555 16.9863 4.87402C16.5037 5.1424 15.8945 4.96884 15.626 4.48633C15.4886 4.23925 15.3866 4.13082 15.3154 4.0791C15.2659 4.04314 15.1876 4 15 4H5C4.45228 4 4 4.45228 4 5V14.998L4.00879 15.1299C4.02644 15.2604 4.07 15.3865 4.13672 15.501C4.22572 15.6537 4.35328 15.7805 4.50684 15.8682C4.98663 16.1417 5.15438 16.7526 4.88086 17.2324C4.60731 17.7122 3.99637 17.879 3.5166 17.6055C3.0571 17.3435 2.67448 16.9649 2.4082 16.5078C2.14196 16.0507 2.00128 15.5309 2 15.002V5Z" fill="black"/>
</svg>
