<svg width="24" height="24" viewBox="0 0 24 24" fill="none" xmlns="http://www.w3.org/2000/svg">
<g clip-path="url(#clip0_860_1728)">
<path d="M18 15C18.852 15 19.297 14.014 18.783 13.377L18.707 13.293L12.707 7.293C12.5348 7.12082 12.3057 7.01739 12.0627 7.00211C11.8197 6.98683 11.5794 7.06075 11.387 7.21L11.293 7.293L5.293 13.293L5.21 13.387L5.156 13.464L5.102 13.56L5.085 13.596L5.058 13.663L5.026 13.771L5.016 13.824L5.006 13.884L5.002 13.941V14.059L5.007 14.117L5.016 14.177L5.026 14.229L5.058 14.337L5.085 14.404L5.155 14.536L5.22 14.626L5.293 14.707L5.387 14.79L5.464 14.844L5.56 14.898L5.596 14.915L5.663 14.942L5.771 14.974L5.824 14.984L5.884 14.994L5.941 14.998L18 15Z" fill="black"/>
</g>
<defs>
<clipPath id="clip0_860_1728">
<rect width="24" height="24" fill="white" transform="matrix(1 0 0 -1 0 24)"/>
</clipPath>
</defs>
</svg>
