<svg width="24" height="24" viewBox="0 0 24 24" fill="none" xmlns="http://www.w3.org/2000/svg">
<path d="M17.9999 10.999C17.9999 7.13303 14.8659 3.99902 10.9999 3.99902C7.13388 3.99902 3.99988 7.13303 3.99988 10.999C3.99988 14.865 7.13388 17.999 10.9999 17.999C14.8659 17.999 17.9999 14.865 17.9999 10.999ZM19.9999 10.999C19.9999 15.9696 15.9704 19.999 10.9999 19.999C6.02931 19.999 1.99988 15.9696 1.99988 10.999C1.99988 6.02846 6.02931 1.99902 10.9999 1.99902C15.9704 1.99902 19.9999 6.02846 19.9999 10.999Z" fill="black"/>
<path d="M15.9929 15.9931C16.3834 15.6026 17.0164 15.6026 17.407 15.9931L21.7064 20.2926C22.097 20.6831 22.097 21.3161 21.7064 21.7066C21.3159 22.0972 20.6829 22.0972 20.2924 21.7066L15.9929 17.4072C15.6024 17.0166 15.6024 16.3836 15.9929 15.9931Z" fill="black"/>
</svg>
