<svg width="24" height="24" viewBox="0 0 24 24" fill="none" xmlns="http://www.w3.org/2000/svg">
<g clip-path="url(#clip0_860_1725)">
<path d="M5 11C4.44771 11 4 11.4477 4 12C4 12.5523 4.44771 13 5 13H19C19.5523 13 20 12.5523 20 12C20 11.4477 19.5523 11 19 11H5Z" fill="black"/>
<path d="M5.70698 11.2929C5.31646 10.9024 4.68345 10.9024 4.29292 11.2929C3.9024 11.6834 3.9024 12.3164 4.29292 12.707L10.2929 18.707C10.6834 19.0975 11.3165 19.0975 11.707 18.707C12.0975 18.3164 12.0975 17.6834 11.707 17.2929L5.70698 11.2929Z" fill="black"/>
<path d="M11.707 5.29289C11.3165 4.90237 10.6834 4.90237 10.2929 5.29289L4.29292 11.2929C3.9024 11.6834 3.9024 12.3164 4.29292 12.707C4.68345 13.0975 5.31646 13.0975 5.70698 12.707L11.707 6.70696C12.0975 6.31643 12.0975 5.68342 11.707 5.29289Z" fill="black"/>
</g>
<defs>
<clipPath id="clip0_860_1725">
<rect width="24" height="24" fill="white" transform="matrix(-1 0 0 1 24 0)"/>
</clipPath>
</defs>
</svg>
