<svg width="24" height="24" viewBox="0 0 24 24" fill="none" xmlns="http://www.w3.org/2000/svg">
<path d="M11.4322 3.20194C11.7857 2.91362 12.3068 2.93396 12.6363 3.26346L16.2363 6.86346C16.5878 7.21493 16.5878 7.78465 16.2363 8.13612C15.8849 8.48759 15.3151 8.48759 14.9637 8.13612L12 5.17245L9.03632 8.13612C8.68485 8.48759 8.11514 8.48759 7.76366 8.13612C7.41219 7.78465 7.41219 7.21493 7.76366 6.86346L11.3637 3.26346L11.4322 3.20194Z" fill="black"/>
<path d="M14.9637 15.8632C15.3151 15.5117 15.8849 15.5117 16.2363 15.8632C16.5878 16.2147 16.5878 16.7844 16.2363 17.1359L12.6363 20.7359C12.2849 21.0873 11.7151 21.0873 11.3637 20.7359L7.76366 17.1359C7.41219 16.7844 7.41219 16.2147 7.76366 15.8632C8.11514 15.5117 8.68485 15.5117 9.03632 15.8632L12 18.8269L14.9637 15.8632Z" fill="black"/>
<path d="M11.1 20.1V3.9C11.1 3.40294 11.5029 3 12 3C12.4971 3 12.9 3.40294 12.9 3.9V20.1C12.9 20.5971 12.4971 21 12 21C11.5029 21 11.1 20.5971 11.1 20.1Z" fill="black"/>
</svg>
