<svg width="24" height="24" viewBox="0 0 24 24" fill="none" xmlns="http://www.w3.org/2000/svg">
<g clip-path="url(#clip0_860_1723)">
<path d="M19.167 6.17285V4.83398H4.83301V6.22754C4.83304 6.51769 4.94156 6.79799 5.13672 7.0127L9.61621 11.9404C9.75566 12.0938 9.83301 12.2937 9.83301 12.501V19.8438L14.167 18.3994V12.001C14.167 11.78 14.2549 11.5684 14.4111 11.4121L18.8252 6.99805L18.9023 6.91211C19.0482 6.73419 19.1384 6.51701 19.1611 6.28809L19.167 6.17285ZM20.833 6.17285C20.8328 6.92424 20.5343 7.64553 20.0029 8.17676L20.002 8.17578L15.833 12.3457V19.001C15.833 19.3597 15.604 19.6786 15.2637 19.792L9.26367 21.792C9.00955 21.8767 8.73 21.8334 8.5127 21.6768C8.29548 21.5201 8.16699 21.2688 8.16699 21.001V12.8223L3.90332 8.13379C3.42947 7.61246 3.16718 6.933 3.16699 6.22852V4.00098C3.16699 3.54074 3.53976 3.16797 4 3.16797H20C20.4602 3.16797 20.833 3.54074 20.833 4.00098V6.17285Z" fill="black"/>
</g>
<defs>
<clipPath id="clip0_860_1723">
<rect width="24" height="24" fill="white"/>
</clipPath>
</defs>
</svg>
