<svg width="24" height="24" viewBox="0 0 24 24" fill="none" xmlns="http://www.w3.org/2000/svg">
<g clip-path="url(#clip0_958_22777)">
<path d="M13 19C13 19.5523 12.5523 20 12 20C11.4477 20 11 19.5523 11 19V5C11 4.44772 11.4477 4 12 4C12.5523 4 13 4.44772 13 5V19Z" fill="black"/>
<path d="M12.7071 18.2929C13.0976 18.6834 13.0976 19.3164 12.7071 19.707C12.3166 20.0975 11.6836 20.0975 11.293 19.707L5.29304 13.707C4.90252 13.3164 4.90252 12.6834 5.29304 12.2929C5.68357 11.9024 6.31658 11.9024 6.70711 12.2929L12.7071 18.2929Z" fill="black"/>
<path d="M18.7071 12.2929C19.0976 12.6834 19.0976 13.3164 18.7071 13.707L12.7071 19.707C12.3166 20.0975 11.6836 20.0975 11.293 19.707C10.9025 19.3164 10.9025 18.6834 11.293 18.2929L17.293 12.2929C17.6836 11.9024 18.3166 11.9024 18.7071 12.2929Z" fill="black"/>
</g>
<defs>
<clipPath id="clip0_958_22777">
<rect width="24" height="24" fill="white" transform="matrix(0 1 -1 0 24 0)"/>
</clipPath>
</defs>
</svg>
