<svg width="24" height="24" viewBox="0 0 24 24" fill="none" xmlns="http://www.w3.org/2000/svg">
<g clip-path="url(#clip0_860_1721)">
<path d="M17.293 5.29289C17.6835 4.90237 18.3165 4.90237 18.707 5.29289C19.0975 5.68342 19.0975 6.31643 18.707 6.70696L6.70702 18.707C6.31649 19.0975 5.68348 19.0975 5.29295 18.707C4.90243 18.3164 4.90243 17.6834 5.29295 17.2929L17.293 5.29289Z" fill="black"/>
<path d="M5.29295 5.29289C5.68348 4.90237 6.31649 4.90237 6.70702 5.29289L18.707 17.2929C19.0975 17.6834 19.0975 18.3164 18.707 18.707C18.3165 19.0975 17.6835 19.0975 17.293 18.707L5.29295 6.70696C4.90243 6.31643 4.90243 5.68342 5.29295 5.29289Z" fill="black"/>
</g>
<defs>
<clipPath id="clip0_860_1721">
<rect width="24" height="24" fill="white"/>
</clipPath>
</defs>
</svg>
