<svg width="24" height="24" viewBox="0 0 24 24" fill="none" xmlns="http://www.w3.org/2000/svg">
<path d="M12 4L6.075 7.425L12 10.85L17.925 7.425L12 4ZM3 15.975V8.025C3 7.65833 3.0875 7.325 3.2625 7.025C3.4375 6.725 3.68333 6.48333 4 6.3L11 2.275C11.1667 2.19167 11.3292 2.125 11.4875 2.075C11.6458 2.025 11.8167 2 12 2C12.1833 2 12.3583 2.025 12.525 2.075C12.6917 2.125 12.85 2.19167 13 2.275L20 6.3C20.3167 6.48333 20.5625 6.725 20.7375 7.025C20.9125 7.325 21 7.65833 21 8.025V11C21 11.2833 20.9042 11.5208 20.7125 11.7125C20.5208 11.9042 20.2833 12 20 12C19.7167 12 19.4792 11.9042 19.2875 11.7125C19.0958 11.5208 19 11.2833 19 11V9.1L12.975 12.575C12.6583 12.7583 12.325 12.85 11.975 12.85C11.625 12.85 11.2917 12.7583 10.975 12.575L5 9.1V15.95L10.5 19.15C10.65 19.2333 10.7708 19.35 10.8625 19.5C10.9542 19.65 11 19.8167 11 20C11 20.3833 10.8333 20.6708 10.5 20.8625C10.1667 21.0542 9.83333 21.0583 9.5 20.875L4 17.7C3.68333 17.5167 3.4375 17.275 3.2625 16.975C3.0875 16.675 3 16.3417 3 15.975ZM18 22C18.1333 22 18.25 21.95 18.35 21.85C18.45 21.75 18.5 21.6333 18.5 21.5C18.5 21.3667 18.45 21.25 18.35 21.15C18.25 21.05 18.1333 21 18 21C17.8667 21 17.75 21.05 17.65 21.15C17.55 21.25 17.5 21.3667 17.5 21.5C17.5 21.6333 17.55 21.75 17.65 21.85C17.75 21.95 17.8667 22 18 22ZM18 20C18.1333 20 18.25 19.95 18.35 19.85C18.45 19.75 18.5 19.6333 18.5 19.5V16.5C18.5 16.3667 18.45 16.25 18.35 16.15C18.25 16.05 18.1333 16 18 16C17.8667 16 17.75 16.05 17.65 16.15C17.55 16.25 17.5 16.3667 17.5 16.5V19.5C17.5 19.6333 17.55 19.75 17.65 19.85C17.75 19.95 17.8667 20 18 20ZM18 24C16.6167 24 15.4375 23.5125 14.4625 22.5375C13.4875 21.5625 13 20.3833 13 19C13 17.6167 13.4875 16.4375 14.4625 15.4625C15.4375 14.4875 16.6167 14 18 14C19.3833 14 20.5625 14.4875 21.5375 15.4625C22.5125 16.4375 23 17.6167 23 19C23 20.3833 22.5125 21.5625 21.5375 22.5375C20.5625 23.5125 19.3833 24 18 24Z" fill="#8B909C"/>
</svg>
