<svg width="28" height="29" viewBox="0 0 28 29" fill="none" xmlns="http://www.w3.org/2000/svg">
<g clip-path="url(#clip0_2787_66913)">
<path d="M14.2398 8.47222V5.40972C14.2398 5.13898 14.1295 4.87932 13.9332 4.68788C13.7369 4.49644 13.4707 4.38889 13.193 4.38889H3.64906C3.09382 4.38889 2.56133 4.60399 2.16872 4.98688C1.77611 5.36976 1.55554 5.88907 1.55554 6.43055M1.55554 6.43055C1.55554 6.97204 1.77611 7.49134 2.16872 7.87423C2.56133 8.25712 3.09382 8.47222 3.64906 8.47222H15.2866C15.5642 8.47222 15.8304 8.57977 16.0267 8.77121C16.223 8.96266 16.3333 9.22231 16.3333 9.49305V12.5556M1.55554 6.43055V18.6806C1.55554 19.222 1.77611 19.7413 2.16872 20.1242C2.56133 20.5071 3.09382 20.7222 3.64906 20.7222H15.2866C15.5642 20.7222 15.8304 20.6147 16.0267 20.4232C16.223 20.2318 16.3333 19.9721 16.3333 19.7014V16.6389" stroke="white" stroke-width="1.75" stroke-linecap="round" stroke-linejoin="round"/>
<path d="M16.3333 12.1667V16.8333H11.1481C10.4605 16.8333 9.8011 16.5875 9.3149 16.1499C8.82869 15.7123 8.55554 15.1188 8.55554 14.5C8.55554 13.8812 8.82869 13.2877 9.3149 12.8501C9.8011 12.4125 10.4605 12.1667 11.1481 12.1667H16.3333Z" stroke="white" stroke-width="1.75" stroke-linecap="round" stroke-linejoin="round"/>
<path d="M13.3739 23.8333C13.2015 23.8333 13.0448 23.7908 12.9038 23.7057C12.7627 23.6206 12.653 23.5084 12.5747 23.3691C12.4963 23.2299 12.4532 23.079 12.4454 22.9165C12.4375 22.7541 12.4806 22.5955 12.5747 22.4407L19.0106 11.0753C19.1046 10.9206 19.2261 10.8045 19.3749 10.7272C19.5238 10.6498 19.6766 10.6111 19.8333 10.6111C19.9901 10.6111 20.1429 10.6498 20.2917 10.7272C20.4406 10.8045 20.5621 10.9206 20.6561 11.0753L27.092 22.4407C27.1861 22.5955 27.2292 22.7541 27.2213 22.9165C27.2135 23.079 27.1704 23.2299 27.092 23.3691C27.0137 23.5084 26.904 23.6206 26.7629 23.7057C26.6219 23.7908 26.4652 23.8333 26.2928 23.8333H13.3739ZM19.8333 21.7991C20.0998 21.7991 20.3231 21.7102 20.5033 21.5322C20.6835 21.3543 20.7737 21.1338 20.7737 20.8707C20.7737 20.6077 20.6835 20.3872 20.5033 20.2092C20.3231 20.0313 20.0998 19.9423 19.8333 19.9423C19.5669 19.9423 19.3436 20.0313 19.1634 20.2092C18.9832 20.3872 18.893 20.6077 18.893 20.8707C18.893 21.1338 18.9832 21.3543 19.1634 21.5322C19.3436 21.7102 19.5669 21.7991 19.8333 21.7991ZM19.8333 19.0139C20.0998 19.0139 20.3231 18.9249 20.5033 18.747C20.6835 18.569 20.7737 18.3485 20.7737 18.0855V15.3003C20.7737 15.0372 20.6835 14.8167 20.5033 14.6388C20.3231 14.4608 20.0998 14.3718 19.8333 14.3718C19.5669 14.3718 19.3436 14.4608 19.1634 14.6388C18.9832 14.8167 18.893 15.0372 18.893 15.3003V18.0855C18.893 18.3485 18.9832 18.569 19.1634 18.747C19.3436 18.9249 19.5669 19.0139 19.8333 19.0139Z" fill="white"/>
</g>
<defs>
<clipPath id="clip0_2787_66913">
<rect width="28" height="28" fill="white" transform="translate(0 0.5)"/>
</clipPath>
</defs>
</svg>
