<svg width="24" height="24" viewBox="0 0 24 24" fill="none" xmlns="http://www.w3.org/2000/svg">
<path d="M18.3281 7.5C18.3281 7.26007 18.2812 7.02245 18.1895 6.80078C18.0976 6.57895 17.9628 6.37682 17.793 6.20703C17.6234 6.03747 17.4217 5.90338 17.2002 5.81152C16.9784 5.71964 16.7401 5.67188 16.5 5.67188C16.2599 5.67188 16.0216 5.71964 15.7998 5.81152C15.5783 5.90338 15.3766 6.03747 15.207 6.20703L5 16.4141V19H7.58594L17.793 8.79297C17.9627 8.62324 18.0976 8.42193 18.1895 8.2002C18.2813 7.97836 18.3281 7.74012 18.3281 7.5ZM20.3281 7.5C20.3281 8.00275 20.2295 8.50133 20.0371 8.96582C19.8447 9.43011 19.5624 9.85165 19.207 10.207L8.70703 20.707C8.5195 20.8946 8.26522 21 8 21H4C3.44772 21 3 20.5523 3 20V16C3.00008 15.7349 3.1055 15.4804 3.29297 15.293L13.793 4.79297C14.1484 4.43754 14.5707 4.15526 15.0352 3.96289C15.4995 3.77059 15.9974 3.67188 16.5 3.67188C17.0026 3.67188 17.5005 3.77059 17.9648 3.96289C18.4293 4.15526 18.8516 4.43754 19.207 4.79297C19.5625 5.14846 19.8447 5.57068 20.0371 6.03516C20.2295 6.49955 20.3281 6.99735 20.3281 7.5Z" fill="black"/>
<path d="M12.793 5.79289C13.1835 5.40237 13.8165 5.40237 14.207 5.79289L18.207 9.79289C18.5975 10.1834 18.5975 10.8164 18.207 11.207C17.8165 11.5975 17.1835 11.5975 16.793 11.207L12.793 7.20696C12.4024 6.81643 12.4024 6.18342 12.793 5.79289Z" fill="black"/>
</svg>
