<svg width="24" height="24" viewBox="0 0 24 24" fill="none" xmlns="http://www.w3.org/2000/svg">
<g clip-path="url(#clip0_913_5780)">
<path d="M13 7V3C13 2.44772 13.4477 2 14 2C14.5523 2 15 2.44772 15 3V7H19C19.5523 7 20 7.44772 20 8C20 8.55228 19.5523 9 19 9H15C14.4696 9 13.961 8.78913 13.5859 8.41406C13.2109 8.03899 13 7.53043 13 7Z" fill="black"/>
<path d="M4 19V5C4 4.20435 4.3163 3.44152 4.87891 2.87891C5.44152 2.3163 6.20435 2 7 2H14C14.2652 2 14.5195 2.10543 14.707 2.29297L19.707 7.29297C19.8946 7.4805 20 7.73478 20 8V19C20 19.7957 19.6837 20.5585 19.1211 21.1211C18.5585 21.6837 17.7957 22 17 22H7C6.20435 22 5.44152 21.6837 4.87891 21.1211C4.3163 20.5585 4 19.7957 4 19ZM6 19C6 19.2652 6.10543 19.5195 6.29297 19.707C6.48051 19.8946 6.73478 20 7 20H17C17.2652 20 17.5195 19.8946 17.707 19.707C17.8946 19.5195 18 19.2652 18 19V8.41406L13.5859 4H7C6.73478 4 6.4805 4.10543 6.29297 4.29297C6.10543 4.4805 6 4.73478 6 5V19Z" fill="black"/>
<path d="M11 17V11C11 10.4477 11.4477 10 12 10C12.5523 10 13 10.4477 13 11V17C13 17.5523 12.5523 18 12 18C11.4477 18 11 17.5523 11 17Z" fill="black"/>
<path d="M11.3691 10.2244C11.7619 9.90402 12.3409 9.92662 12.707 10.2927L15.207 12.7927C15.5975 13.1833 15.5975 13.8163 15.207 14.2068C14.8165 14.5973 14.1835 14.5973 13.793 14.2068L12 12.4138L10.207 14.2068C9.81649 14.5973 9.18348 14.5973 8.79295 14.2068C8.40243 13.8163 8.40243 13.1833 8.79295 12.7927L11.293 10.2927L11.3691 10.2244Z" fill="black"/>
</g>
<defs>
<clipPath id="clip0_913_5780">
<rect width="24" height="24" fill="white"/>
</clipPath>
</defs>
</svg>
