<svg width="24" height="24" viewBox="0 0 24 24" fill="none" xmlns="http://www.w3.org/2000/svg">
<g clip-path="url(#clip0_867_4075)">
<path d="M17.5311 5.00781C17.7997 5.04292 18.0422 5.19646 18.1863 5.43066L20.8924 9.83301C21.1042 10.1777 21.0622 10.6217 20.7889 10.9199L13.1199 19.2842C13.1108 19.2941 13.1002 19.3039 13.0906 19.3135C12.9465 19.457 12.7755 19.5708 12.5887 19.6475C12.402 19.7239 12.2019 19.7626 12.0008 19.7627C11.7995 19.7627 11.5987 19.724 11.4119 19.6475C11.2252 19.5708 11.054 19.4569 10.91 19.3135C10.9005 19.304 10.8907 19.294 10.8817 19.2842L3.21271 10.9199C2.93926 10.6216 2.89627 10.1777 3.10822 9.83301L5.81525 5.43066L5.88263 5.33496C6.05321 5.12447 6.3117 5.00009 6.58673 5H17.4149L17.5311 5.00781ZM7.09357 6.81152L5.00861 10.2002L11.9998 17.8232L18.991 10.1992L16.908 6.81152H7.09357Z" fill="black"/>
</g>
<defs>
<clipPath id="clip0_867_4075">
<rect width="24" height="24" fill="white"/>
</clipPath>
</defs>
</svg>
