<svg width="24" height="24" viewBox="0 0 24 24" fill="none" xmlns="http://www.w3.org/2000/svg">
<g clip-path="url(#clip0_860_1735)">
<path d="M9.99948 12C9.99948 11.4696 10.2103 10.96 10.5854 10.585C10.9605 10.2099 11.47 9.99902 12.0005 9.99902C12.5306 9.99915 13.0391 10.2102 13.414 10.585C13.7891 10.96 14 11.4696 14 12C13.9998 12.5303 13.789 13.0386 13.414 13.4136C13.0391 13.7885 12.5307 13.9994 12.0005 13.9995C11.47 13.9995 10.9605 13.7886 10.5854 13.4136C10.2106 13.0386 9.99961 12.5301 9.99948 12Z" fill="black"/>
<path d="M2.99954 8.00098V6C2.99967 5.20453 3.31595 4.4414 3.87845 3.87891C4.44094 3.31641 5.20407 3.00013 5.99954 3H8.00052C8.55258 3.00026 8.99954 3.44837 8.99954 4.00049C8.99954 4.55261 8.55258 5.00071 8.00052 5.00098H5.99954C5.7345 5.00111 5.48091 5.10652 5.29349 5.29395C5.10607 5.48137 5.00065 5.73496 5.00052 6V8.00098C5.00026 8.55304 4.55215 9 4.00003 9C3.44791 9 2.99981 8.55304 2.99954 8.00098Z" fill="black"/>
<path d="M2.99954 18V16.0005C2.99954 15.4482 3.44775 15 4.00003 15C4.55232 15 5.00052 15.4482 5.00052 16.0005V18C5.00052 18.2652 5.10595 18.52 5.29349 18.7075C5.48089 18.8948 5.73462 19.0004 5.99954 19.0005H8.00052C8.55258 19.0008 8.99954 19.4489 8.99954 20.001C8.99928 20.5529 8.55242 20.9997 8.00052 21H5.99954C5.20407 20.9999 4.44094 20.6836 3.87845 20.1211C3.31614 19.5585 2.99954 18.7954 2.99954 18Z" fill="black"/>
<path d="M19 8.00098V6C18.9999 5.73508 18.8943 5.48134 18.7071 5.29395C18.5195 5.10641 18.2648 5.00098 17.9995 5.00098H16C15.4477 5.00098 14.9995 4.55277 14.9995 4.00049C14.9995 3.4482 15.4477 3 16 3H17.9995C18.795 3 19.5581 3.3166 20.1206 3.87891C20.6831 4.4414 20.9994 5.20453 20.9995 6V8.00098C20.9993 8.55287 20.5524 8.99974 20.0005 9C19.4484 9 19.0003 8.55304 19 8.00098Z" fill="black"/>
<path d="M19 18V16.0005C19 15.4482 19.4482 15 20.0005 15C20.5526 15.0003 20.9995 15.4484 20.9995 16.0005V18C20.9995 18.7957 20.6832 19.5585 20.1206 20.1211C19.558 20.6837 18.7952 21 17.9995 21H16C15.4479 21 14.9998 20.553 14.9995 20.001C14.9995 19.4487 15.4477 19.0005 16 19.0005H17.9995C18.2648 19.0005 18.5195 18.8951 18.7071 18.7075C18.8946 18.52 19 18.2652 19 18Z" fill="black"/>
</g>
<defs>
<clipPath id="clip0_860_1735">
<rect width="24" height="24" fill="white"/>
</clipPath>
</defs>
</svg>
