<svg width="24" height="24" viewBox="0 0 24 24" fill="none" xmlns="http://www.w3.org/2000/svg">
<g clip-path="url(#clip0_860_1734)">
<path d="M15.707 5.29253C15.3166 4.90241 14.6839 4.90257 14.2934 5.29253C13.9029 5.68305 13.9029 6.31704 14.2934 6.70757L17.5864 9.99907L14.2934 13.2935C13.9029 13.684 13.9029 14.3166 14.2934 14.7071C14.684 15.0974 15.3166 15.0975 15.707 14.7071L19.7075 10.7066C20.0975 10.3161 20.0976 9.6834 19.7075 9.29302L15.707 5.29253Z" fill="black"/>
<path d="M5.00049 14.001C5.00049 13.2053 5.31678 12.4425 5.87939 11.8799C6.442 11.3173 7.20484 11.001 8.00049 11.001H19C19.5523 11.001 20.0005 10.5528 20.0005 10.0005C20.0005 9.4482 19.5523 9 19 9H8.00049C6.67441 9 5.40204 9.52716 4.46436 10.4648C3.52667 11.4025 2.99951 12.6749 2.99951 14.001C2.99964 15.3268 3.52694 16.5981 4.46436 17.5356C5.40204 18.4733 6.67441 19.0005 8.00049 19.0005H8.99951C9.5518 19.0005 10 18.5523 10 18C9.99974 17.4479 9.55163 17.001 8.99951 17.001H8.00049C7.20507 17.001 6.44196 16.6844 5.87939 16.1221C5.3169 15.5596 5.00062 14.7964 5.00049 14.001Z" fill="black"/>
</g>
<defs>
<clipPath id="clip0_860_1734">
<rect width="24" height="24" fill="white" transform="matrix(-1 0 0 1 24 0)"/>
</clipPath>
</defs>
</svg>
