<svg width="24" height="24" viewBox="0 0 24 24" fill="none" xmlns="http://www.w3.org/2000/svg">
<path d="M3 19V7C3 6.20435 3.3163 5.44152 3.87891 4.87891C4.44152 4.3163 5.20435 4 6 4H8C8.55228 4 9 4.44772 9 5C9 5.55228 8.55228 6 8 6H6C5.73478 6 5.4805 6.10543 5.29297 6.29297C5.10543 6.4805 5 6.73478 5 7V19C5 19.2652 5.10543 19.5195 5.29297 19.707C5.48051 19.8946 5.73478 20 6 20H11.6973C12.2494 20.0001 12.6973 20.4478 12.6973 21C12.6973 21.5522 12.2494 21.9999 11.6973 22H6C5.20435 22 4.44152 21.6837 3.87891 21.1211C3.3163 20.5585 3 19.7956 3 19Z" fill="black"/>
<path d="M17 14C17 13.4477 17.4477 13 18 13C18.5523 13 19 13.4477 19 14V17H22C22.5523 17 23 17.4477 23 18C23 18.5523 22.5523 19 22 19H18C17.4477 19 17 18.5523 17 18V14Z" fill="black"/>
<path d="M17 11V7C17 6.73478 16.8946 6.48051 16.707 6.29297C16.5195 6.10543 16.2652 6 16 6H14C13.4477 6 13 5.55228 13 5C13 4.44772 13.4477 4 14 4H16C16.7956 4 17.5585 4.3163 18.1211 4.87891C18.6837 5.44151 19 6.20435 19 7V11C19 11.5523 18.5523 12 18 12C17.4477 12 17 11.5523 17 11Z" fill="black"/>
<path d="M13 5C13 4.73478 12.8946 4.48051 12.707 4.29297C12.5195 4.10543 12.2652 4 12 4H10C9.73478 4 9.4805 4.10543 9.29297 4.29297C9.10543 4.48051 9 4.73478 9 5C9 5.26522 9.10543 5.51949 9.29297 5.70703C9.4805 5.89457 9.73478 6 10 6H12C12.2652 6 12.5195 5.89457 12.707 5.70703C12.8946 5.51949 13 5.26522 13 5ZM15 5C15 5.79565 14.6837 6.55849 14.1211 7.12109C13.5585 7.6837 12.7956 8 12 8H10C9.20435 8 8.44152 7.6837 7.87891 7.12109C7.3163 6.55849 7 5.79565 7 5C7 4.20435 7.3163 3.44151 7.87891 2.87891C8.44152 2.3163 9.20435 2 10 2H12C12.7956 2 13.5585 2.3163 14.1211 2.87891C14.6837 3.44151 15 4.20435 15 5Z" fill="black"/>
<path d="M21 18C21 17.2044 20.6837 16.4415 20.1211 15.8789C19.5585 15.3163 18.7956 15 18 15C17.2044 15 16.4415 15.3163 15.8789 15.8789C15.3163 16.4415 15 17.2044 15 18C15 18.7956 15.3163 19.5585 15.8789 20.1211C16.4415 20.6837 17.2044 21 18 21C18.7956 21 19.5585 20.6837 20.1211 20.1211C20.6837 19.5585 21 18.7956 21 18ZM23 18C23 19.3261 22.4728 20.5975 21.5352 21.5352C20.5975 22.4728 19.3261 23 18 23C16.6739 23 15.4025 22.4728 14.4648 21.5352C13.5272 20.5975 13 19.3261 13 18C13 16.6739 13.5272 15.4025 14.4648 14.4648C15.4025 13.5272 16.6739 13 18 13C19.3261 13 20.5975 13.5272 21.5352 14.4648C22.4728 15.4025 23 16.6739 23 18Z" fill="black"/>
<path d="M12 10C12.5523 10 13 10.4477 13 11C13 11.5523 12.5523 12 12 12H8C7.44772 12 7 11.5523 7 11C7 10.4477 7.44772 10 8 10H12Z" fill="black"/>
<path d="M11 14C11.5523 14 12 14.4477 12 15C12 15.5523 11.5523 16 11 16H8C7.44772 16 7 15.5523 7 15C7 14.4477 7.44772 14 8 14H11Z" fill="black"/>
</svg>
