<svg width="24" height="24" viewBox="0 0 24 24" fill="none" xmlns="http://www.w3.org/2000/svg">
<path d="M15.5576 14.9853C15.5576 14.4322 15.3377 13.9016 14.9467 13.5105C14.5556 13.1194 14.025 12.8995 13.4719 12.8995H10.4881C9.45818 12.8995 8.47043 12.4901 7.74218 11.7619C7.01406 11.0337 6.6046 10.0466 6.60449 9.01684C6.60449 7.98695 7.01395 6.99918 7.74218 6.27093C8.47043 5.54269 9.45818 5.13325 10.4881 5.13325H13.4719V5.13412C14.1655 5.11614 14.8516 5.2833 15.4584 5.62045C16.0739 5.96243 16.5851 6.46506 16.9367 7.07504C17.1847 7.50515 17.0368 8.0552 16.6067 8.30315C16.1766 8.55091 15.6273 8.40309 15.3794 7.97308C15.1906 7.64542 14.9156 7.37547 14.585 7.19179C14.2545 7.00824 13.8804 6.91753 13.5026 6.9302C13.4925 6.93054 13.482 6.93107 13.4719 6.93107H10.4881C9.935 6.93107 9.40439 7.15096 9.0133 7.54206C8.62223 7.93314 8.40232 8.46377 8.40232 9.01684C8.40243 9.56974 8.62234 10.0998 9.0133 10.4907C9.40439 10.8818 9.935 11.1017 10.4881 11.1017H13.4719C14.5018 11.1017 15.4895 11.5112 16.2178 12.2394C16.946 12.9677 17.3555 13.9554 17.3555 14.9853C17.3554 16.0151 16.946 17.003 16.2178 17.7312C15.4896 18.4593 14.5017 18.868 13.4719 18.868H10.2546C9.64126 18.847 9.04016 18.6809 8.50152 18.3817C7.88593 18.0397 7.37495 17.5363 7.02322 16.9262C6.77528 16.4961 6.92319 15.9461 7.35329 15.6981C7.7833 15.4506 8.33263 15.5983 8.58052 16.0282C8.76941 16.3558 9.04436 16.6258 9.37497 16.8095C9.70549 16.993 10.0795 17.0838 10.4574 17.0711C10.4674 17.0707 10.478 17.0702 10.4881 17.0702H13.4719C14.0249 17.0702 14.5556 16.8511 14.9467 16.4601C15.3377 16.0691 15.5576 15.5383 15.5576 14.9853Z" fill="black"/>
<path d="M10.8678 19.8862V3.89891C10.8678 3.40246 11.2703 3 11.7667 3C12.2632 3 12.6656 3.40246 12.6656 3.89891V19.8862C12.6656 20.3827 12.2632 20.7852 11.7667 20.7852C11.2703 20.7852 10.8678 20.3827 10.8678 19.8862Z" fill="black"/>
</svg>
