<svg width="24" height="24" viewBox="0 0 24 24" fill="none" xmlns="http://www.w3.org/2000/svg">
<path d="M6.29295 7.29289C6.68348 6.90237 7.31649 6.90237 7.70702 7.29289C8.09754 7.68342 8.09754 8.31643 7.70702 8.70696L4.41405 11.9999L7.70702 15.2929C8.09754 15.6834 8.09754 16.3164 7.70702 16.707C7.31649 17.0975 6.68348 17.0975 6.29295 16.707L2.29295 12.707C1.90243 12.3164 1.90243 11.6834 2.29295 11.2929L6.29295 7.29289Z" fill="black"/>
<path d="M16.293 7.29289C16.6835 6.90237 17.3165 6.90237 17.707 7.29289L21.707 11.2929C22.0975 11.6834 22.0975 12.3164 21.707 12.707L17.707 16.707C17.3165 17.0975 16.6835 17.0975 16.293 16.707C15.9024 16.3164 15.9024 15.6834 16.293 15.2929L19.5859 11.9999L16.293 8.70696C15.9024 8.31643 15.9024 7.68342 16.293 7.29289Z" fill="black"/>
<path d="M13.0303 3.75758C13.1642 3.22187 13.7065 2.89625 14.2422 3.03004C14.7779 3.16397 15.1035 3.70624 14.9697 4.24196L10.9697 20.242C10.8358 20.7777 10.2935 21.1033 9.75783 20.9695C9.22211 20.8356 8.89649 20.2933 9.03029 19.7576L13.0303 3.75758Z" fill="black"/>
</svg>
