<svg width="24" height="24" viewBox="0 0 24 24" fill="none" xmlns="http://www.w3.org/2000/svg">
<g clip-path="url(#clip0_898_1435)">
<path d="M8.76269 3.32431C9.13587 2.91721 9.76866 2.88964 10.1758 3.26279C10.5829 3.63597 10.6105 4.26875 10.2373 4.67587L6.27344 9.00009H20C20.5523 9.00009 21 9.44781 21 10.0001C21 10.5524 20.5523 11.0001 20 11.0001H4C3.60343 11.0001 3.24464 10.7654 3.08496 10.4024C2.92537 10.0395 2.9948 9.6166 3.26269 9.32431L8.76269 3.32431Z" fill="black"/>
<path d="M20 13C20.3966 13 20.7554 13.2347 20.915 13.5977C21.0746 13.9606 21.0052 14.3835 20.7373 14.6758L15.2373 20.6758C14.8641 21.0829 14.2313 21.1105 13.8242 20.7373C13.4171 20.3641 13.3895 19.7313 13.7627 19.3242L17.7266 15H4C3.44772 15 3 14.5523 3 14C3 13.4477 3.44772 13 4 13H20Z" fill="black"/>
</g>
<defs>
<clipPath id="clip0_898_1435">
<rect width="24" height="24" fill="white"/>
</clipPath>
</defs>
</svg>
