<svg width="22" height="22" viewBox="0 0 22 22" fill="none" xmlns="http://www.w3.org/2000/svg">
<g clip-path="url(#clip0_104_15708)">
<path d="M9.77777 2.75012V6.17234C9.77744 6.28479 9.79933 6.39619 9.84221 6.50015C9.88509 6.6041 9.94809 6.69855 10.0276 6.77807C10.1071 6.85758 10.2016 6.92059 10.3055 6.96346C10.4095 7.00634 10.5209 7.02823 10.6333 7.0279H14.0555" stroke="#969FAF" stroke-width="1.375" stroke-linecap="round" stroke-linejoin="round"/>
<path d="M13.1389 18.639H3.66665C3.18042 18.639 2.7141 18.453 2.37028 18.1219C2.02647 17.7908 1.83331 17.3418 1.83331 16.8736V4.51555C1.83331 4.04733 2.02647 3.59829 2.37028 3.26721C2.7141 2.93612 3.18042 2.75012 3.66665 2.75012H10.0833L14.6666 7.1637V13.1956" stroke="#969FAF" stroke-width="1.375" stroke-linecap="round" stroke-linejoin="round"/>
<path d="M5.5 7.63916H7.02778" stroke="#969FAF" stroke-width="1.375" stroke-linecap="round" stroke-linejoin="round"/>
<path d="M5.5 11.2998H10.6944" stroke="#969FAF" stroke-width="1.375" stroke-linecap="round" stroke-linejoin="round"/>
<path d="M5.5 14.9698H7.33333" stroke="#969FAF" stroke-width="1.375" stroke-linecap="round" stroke-linejoin="round"/>
<path d="M20.4481 14.4049C20.4481 18.6778 17.8069 20.198 16.7504 20.198C15.6939 20.198 13.0527 18.6778 13.0527 14.4049C14.1092 14.4049 15.6939 13.8708 16.7504 12.8026C17.8069 13.8708 19.3916 14.4049 20.4481 14.4049Z" fill="#969FAF" stroke="#969FAF" stroke-width="1.375" stroke-linecap="round" stroke-linejoin="round"/>
</g>
<defs>
<clipPath id="clip0_104_15708">
<rect width="22" height="22" fill="white"/>
</clipPath>
</defs>
</svg>
