<svg width="24" height="24" viewBox="0 0 24 24" fill="none" xmlns="http://www.w3.org/2000/svg">
<g clip-path="url(#clip0_898_1309)">
<path d="M7 20L5 20C4.44772 20 4 19.5523 4 19C4 18.4477 4.44772 18 5 18L7 18C8.5913 18 10.117 17.3674 11.2422 16.2422C12.3674 15.117 13 13.5913 13 12C13 10.4087 12.3674 8.88303 11.2422 7.75781C10.117 6.63259 8.5913 6 7 6L5 6C4.44772 6 4 5.55229 4 5C4 4.44772 4.44772 4 5 4L7 4C9.12173 4 11.1569 4.84248 12.6572 6.34277C14.1575 7.84306 15 9.87827 15 12C15 14.1217 14.1575 16.1569 12.6572 17.6572C11.1569 19.1575 9.12173 20 7 20Z" fill="black"/>
<path d="M3.99999 13.0001L18.5859 13.0001L18.293 13.293C17.9024 13.6836 17.9024 14.3166 18.293 14.7071C18.6835 15.0976 19.3165 15.0976 19.707 14.7071L21.707 12.7071L21.7754 12.6309C22.0957 12.2382 22.0731 11.6592 21.707 11.293L19.707 9.29305C19.3165 8.90252 18.6835 8.90252 18.293 9.29304C17.9024 9.68357 17.9024 10.3166 18.293 10.7071L18.5859 11.0001L3.99999 11.0001C3.44771 11.0001 2.99999 11.4478 2.99999 12.0001C2.99999 12.5524 3.44771 13.0001 3.99999 13.0001Z" fill="black"/>
</g>
<defs>
<clipPath id="clip0_898_1309">
<rect width="24" height="24" fill="white" transform="translate(1.04907e-06 24) rotate(-90)"/>
</clipPath>
</defs>
</svg>
