<svg width="22" height="22" viewBox="0 0 22 22" fill="none" xmlns="http://www.w3.org/2000/svg">
<path d="M1.83331 4.5835L8.24998 1.8335L13.75 4.5835L19.5277 2.1073C19.7605 2.00759 20.0299 2.11536 20.1296 2.34803C20.154 2.40508 20.1666 2.46651 20.1666 2.52858V17.4168L13.75 20.1668L8.24998 17.4168L2.47219 19.893C2.23952 19.9928 1.97009 19.885 1.87037 19.6523C1.84592 19.5953 1.83331 19.5338 1.83331 19.4717V4.5835ZM14.6666 17.7794L18.3333 16.2079V4.61382L14.6666 6.18524V17.7794ZM12.8333 17.6587V6.17489L9.16665 4.34156V15.8254L12.8333 17.6587ZM7.33331 15.815V4.22096L3.66665 5.79239V17.3865L7.33331 15.815Z" fill="url(#paint0_linear_104_15693)"/>
<defs>
<linearGradient id="paint0_linear_104_15693" x1="1.83331" y1="11.0002" x2="20.1666" y2="11.0002" gradientUnits="userSpaceOnUse">
<stop stop-color="#D4E1FF"/>
<stop offset="1" stop-color="#88ADFF"/>
</linearGradient>
</defs>
</svg>
