<svg width="24" height="24" viewBox="0 0 24 24" fill="none" xmlns="http://www.w3.org/2000/svg">
<g clip-path="url(#clip0_867_3624)">
<path d="M19.0997 17.9985C19.0996 17.707 18.9836 17.4269 18.7775 17.2207C18.5712 17.0147 18.2911 16.8984 17.9996 16.8984C17.7081 16.8986 17.428 17.0145 17.2218 17.2207C17.0156 17.4269 16.8997 17.707 16.8995 17.9985C16.8995 18.29 17.0158 18.5701 17.2218 18.7764C17.428 18.9825 17.7081 19.0985 17.9996 19.0986C18.2914 19.0986 18.5712 18.9827 18.7775 18.7764C18.9838 18.5701 19.0997 18.2903 19.0997 17.9985ZM20.9 17.9985C20.9 18.7677 20.5943 19.5055 20.0504 20.0493C19.5066 20.5932 18.7688 20.8989 17.9996 20.8989C17.2307 20.8988 16.4926 20.5931 15.9489 20.0493C15.4053 19.5055 15.1007 18.7674 15.1007 17.9985C15.1008 17.2296 15.4051 16.4915 15.9489 15.9478C16.4926 15.404 17.2307 15.0997 17.9996 15.0996C18.7685 15.0996 19.5066 15.4042 20.0504 15.9478C20.5942 16.4915 20.8999 17.2296 20.9 17.9985Z" fill="black"/>
<path d="M7.09973 17.9985C7.0996 17.707 6.98364 17.4269 6.77747 17.2207C6.57122 17.0147 6.29114 16.8984 5.99963 16.8984C5.70807 16.8986 5.42798 17.0145 5.2218 17.2207C5.01563 17.4269 4.89967 17.707 4.89954 17.9985C4.89954 18.29 5.01582 18.5701 5.2218 18.7764C5.42798 18.9825 5.70807 19.0985 5.99963 19.0986C6.29137 19.0986 6.57118 18.9827 6.77747 18.7764C6.98376 18.5701 7.09973 18.2903 7.09973 17.9985ZM8.90002 17.9985C8.90002 18.7677 8.59427 19.5055 8.05042 20.0493C7.50656 20.5932 6.76876 20.8989 5.99963 20.8989C5.23068 20.8988 4.49259 20.5931 3.94885 20.0493C3.4053 19.5055 3.10071 18.7674 3.10071 17.9985C3.10084 17.2296 3.40511 16.4915 3.94885 15.9478C4.49259 15.404 5.23068 15.0997 5.99963 15.0996C6.76853 15.0996 7.50661 15.4042 8.05042 15.9478C8.59416 16.4915 8.89989 17.2296 8.90002 17.9985Z" fill="black"/>
<path d="M7.09973 5.99854C7.0996 5.70697 6.98364 5.42688 6.77747 5.2207C6.57122 5.01472 6.29114 4.89844 5.99963 4.89844C5.70807 4.89857 5.42798 5.01453 5.2218 5.2207C5.01563 5.42688 4.89967 5.70697 4.89954 5.99854C4.89954 6.29004 5.01582 6.57012 5.2218 6.77637C5.42798 6.98254 5.70807 7.0985 5.99963 7.09863C6.29137 7.09863 6.57118 6.98266 6.77747 6.77637C6.98376 6.57008 7.09973 6.29027 7.09973 5.99854ZM8.90002 5.99854C8.90002 6.76766 8.59427 7.50546 8.05042 8.04932C7.50656 8.59317 6.76876 8.89893 5.99963 8.89893C5.23068 8.8988 4.49259 8.59306 3.94885 8.04932C3.4053 7.50551 3.10071 6.76743 3.10071 5.99854C3.10084 5.22958 3.40511 4.49149 3.94885 3.94775C4.49259 3.40401 5.23068 3.09974 5.99963 3.09961C6.76853 3.09961 7.50661 3.4042 8.05042 3.94775C8.59416 4.49149 8.89989 5.22958 8.90002 5.99854Z" fill="black"/>
<path d="M19.0997 5.99854C19.0996 5.70697 18.9836 5.42688 18.7775 5.2207C18.5712 5.01472 18.2911 4.89844 17.9996 4.89844C17.7081 4.89857 17.428 5.01453 17.2218 5.2207C17.0156 5.42688 16.8997 5.70697 16.8995 5.99854C16.8995 6.29004 17.0158 6.57012 17.2218 6.77637C17.428 6.98254 17.7081 7.0985 17.9996 7.09863C18.2914 7.09863 18.5712 6.98266 18.7775 6.77637C18.9838 6.57008 19.0997 6.29027 19.0997 5.99854ZM20.9 5.99854C20.9 6.76766 20.5943 7.50546 20.0504 8.04932C19.5066 8.59317 18.7688 8.89893 17.9996 8.89893C17.2307 8.8988 16.4926 8.59306 15.9489 8.04932C15.4053 7.50551 15.1007 6.76743 15.1007 5.99854C15.1008 5.22958 15.4051 4.49149 15.9489 3.94775C16.4926 3.40401 17.2307 3.09974 17.9996 3.09961C18.7685 3.09961 19.5066 3.4042 20.0504 3.94775C20.5942 4.49149 20.8999 5.22958 20.9 5.99854Z" fill="black"/>
<path d="M13.0997 11.9985C13.0996 11.707 12.9836 11.4269 12.7775 11.2207C12.5712 11.0147 12.2911 10.8984 11.9996 10.8984C11.7081 10.8986 11.428 11.0145 11.2218 11.2207C11.0156 11.4269 10.8997 11.707 10.8995 11.9985C10.8995 12.29 11.0158 12.5701 11.2218 12.7764C11.428 12.9825 11.7081 13.0985 11.9996 13.0986C12.2914 13.0986 12.5712 12.9827 12.7775 12.7764C12.9838 12.5701 13.0997 12.2903 13.0997 11.9985ZM14.9 11.9985C14.9 12.7677 14.5943 13.5055 14.0504 14.0493C13.5066 14.5932 12.7688 14.8989 11.9996 14.8989C11.2307 14.8988 10.4926 14.5931 9.94885 14.0493C9.4053 13.5055 9.10071 12.7674 9.10071 11.9985C9.10084 11.2296 9.40511 10.4915 9.94885 9.94775C10.4926 9.40401 11.2307 9.09974 11.9996 9.09961C12.7685 9.09961 13.5066 9.4042 14.0504 9.94775C14.5942 10.4915 14.8999 11.2296 14.9 11.9985Z" fill="black"/>
<path d="M5.10071 15.9985V7.99902C5.10071 7.50197 5.50307 7.09961 6.00012 7.09961C6.49718 7.09961 6.89954 7.50197 6.89954 7.99902V15.9985C6.89954 16.4956 6.49718 16.8994 6.00012 16.8994C5.50307 16.8994 5.10071 16.4956 5.10071 15.9985Z" fill="black"/>
<path d="M17.1007 15.9985V7.99902C17.1007 7.50197 17.5031 7.09961 18.0001 7.09961C18.4972 7.09961 18.8995 7.50197 18.8995 7.99902V15.9985C18.8995 16.4956 18.4972 16.8994 18.0001 16.8994C17.5031 16.8994 17.1007 16.4956 17.1007 15.9985Z" fill="black"/>
<path d="M15.9996 5.10059C16.4966 5.10059 16.9005 5.50294 16.9005 6C16.9005 6.49706 16.4966 6.89941 15.9996 6.89941H8.00006C7.503 6.89941 7.10065 6.49706 7.10065 6C7.10065 5.50294 7.503 5.10059 8.00006 5.10059H15.9996Z" fill="black"/>
<path d="M15.9996 17.1006C16.4966 17.1006 16.9005 17.5029 16.9005 18C16.9005 18.4971 16.4966 18.8994 15.9996 18.8994H8.00006C7.503 18.8994 7.10065 18.4971 7.10065 18C7.10065 17.5029 7.503 17.1006 8.00006 17.1006H15.9996Z" fill="black"/>
<path d="M6.86425 6.86419C7.21572 6.51272 7.78426 6.51272 8.13574 6.86419L11.1357 9.86419C11.4872 10.2157 11.4872 10.7842 11.1357 11.1357C10.7843 11.4871 10.2157 11.4871 9.86425 11.1357L6.86425 8.13567C6.51278 7.7842 6.51278 7.21566 6.86425 6.86419Z" fill="black"/>
<path d="M12.8643 12.8642C13.2157 12.5127 13.7843 12.5127 14.1357 12.8642L17.1357 15.8642C17.4872 16.2157 17.4872 16.7842 17.1357 17.1357C16.7843 17.4871 16.2157 17.4871 15.8643 17.1357L12.8643 14.1357C12.5128 13.7842 12.5128 13.2157 12.8643 12.8642Z" fill="black"/>
<path d="M15.8643 6.86419C16.2157 6.51272 16.7843 6.51272 17.1357 6.86419C17.4872 7.21566 17.4872 7.7842 17.1357 8.13567L14.1357 11.1357C13.7843 11.4871 13.2157 11.4871 12.8643 11.1357C12.5128 10.7842 12.5128 10.2157 12.8643 9.86419L15.8643 6.86419Z" fill="black"/>
<path d="M9.86425 12.8642C10.2157 12.5127 10.7843 12.5127 11.1357 12.8642C11.4872 13.2157 11.4872 13.7842 11.1357 14.1357L8.13574 17.1357C7.78426 17.4871 7.21572 17.4871 6.86425 17.1357C6.51278 16.7842 6.51278 16.2157 6.86425 15.8642L9.86425 12.8642Z" fill="black"/>
</g>
<defs>
<clipPath id="clip0_867_3624">
<rect width="24" height="24" fill="white"/>
</clipPath>
</defs>
</svg>
