<svg width="24" height="24" viewBox="0 0 24 24" fill="none" xmlns="http://www.w3.org/2000/svg">
<path d="M10.4161 14.0106L9.09193 12.6863C8.90275 12.4972 8.68205 12.4026 8.42982 12.4026C8.17758 12.4026 7.95688 12.4972 7.76771 12.6863C7.57853 12.8755 7.48394 13.1002 7.48394 13.3603C7.48394 13.6204 7.57853 13.845 7.76771 14.0342L9.77769 16.0678C9.96686 16.257 10.1876 16.3516 10.4398 16.3516C10.692 16.3516 10.9127 16.257 11.1019 16.0678L15.0982 12.0715C15.2874 11.8823 15.382 11.6538 15.382 11.3858C15.382 11.1178 15.2874 10.8892 15.0982 10.7C14.909 10.5108 14.6805 10.4162 14.4125 10.4162C14.1445 10.4162 13.9159 10.5108 13.7267 10.7L10.4161 14.0106ZM6.79819 19.5676C5.36361 19.5676 4.13792 19.071 3.12111 18.0778C2.10429 17.0846 1.59589 15.8708 1.59589 14.4362C1.59589 13.2066 1.96635 12.1109 2.70729 11.1493C3.44822 10.1877 4.41774 9.57284 5.61585 9.30484C6.00996 7.8545 6.79819 6.68004 7.98053 5.78146C9.16287 4.88288 10.5029 4.43359 12.0005 4.43359C13.8449 4.43359 15.4096 5.076 16.6944 6.36081C17.9792 7.64562 18.6216 9.21025 18.6216 11.0547C19.7093 11.1808 20.6119 11.6498 21.3292 12.4617C22.0464 13.2736 22.4051 14.2234 22.4051 15.3111C22.4051 16.4935 21.9913 17.4985 21.1636 18.3261C20.336 19.1537 19.331 19.5676 18.1487 19.5676H6.79819ZM6.79819 17.6758H18.1487C18.8108 17.6758 19.3704 17.4472 19.8276 16.9901C20.2848 16.5329 20.5133 15.9732 20.5133 15.3111C20.5133 14.649 20.2848 14.0894 19.8276 13.6322C19.3704 13.175 18.8108 12.9464 18.1487 12.9464H16.7298V11.0547C16.7298 9.74625 16.2687 8.6309 15.3465 7.70868C14.4243 6.78645 13.3089 6.32534 12.0005 6.32534C10.692 6.32534 9.57669 6.78645 8.65446 7.70868C7.73224 8.6309 7.27112 9.74625 7.27112 11.0547H6.79819C5.88384 11.0547 5.1035 11.3779 4.45715 12.0242C3.8108 12.6706 3.48763 13.4509 3.48763 14.3653C3.48763 15.2796 3.8108 16.0599 4.45715 16.7063C5.1035 17.3526 5.88384 17.6758 6.79819 17.6758Z" fill="black"/>
</svg>
