<svg width="24" height="24" viewBox="0 0 24 24" fill="none" xmlns="http://www.w3.org/2000/svg">
<path d="M13.9293 14.0002C15.144 14.0002 16.321 14.4519 17.1973 15.273C18.0756 16.0959 18.5811 17.2258 18.5812 18.4177V20.1571C18.5812 20.6757 18.1611 21.0965 17.6427 21.0967C17.124 21.0967 16.7031 20.6758 16.7031 20.1571V18.4177C16.703 17.7649 16.4263 17.1251 15.9124 16.6436C15.3963 16.1602 14.6837 15.8793 13.9293 15.8793H10.2171C9.46257 15.8793 8.7501 16.1601 8.23403 16.6436C7.72008 17.1251 7.44439 17.7649 7.44429 18.4177V20.1571C7.44429 20.6758 7.02342 21.0967 6.50475 21.0967C5.98609 21.0967 5.56522 20.6758 5.56522 20.1571V18.4177C5.56531 17.2258 6.07174 16.0959 6.95007 15.273C7.82635 14.452 9.00252 14.0003 10.2171 14.0002H13.9293ZM12.0737 3.56543C13.2451 3.56556 14.3697 4.03129 15.198 4.85959C16.0261 5.68789 16.4911 6.81165 16.4912 7.98289C16.4912 9.15433 16.0263 10.2788 15.198 11.1072C14.3697 11.9355 13.2451 12.4002 12.0737 12.4003C10.9025 12.4003 9.77871 11.9353 8.95041 11.1072C8.12198 10.2788 7.65625 9.15445 7.65625 7.98289C7.65634 6.81145 8.12206 5.68793 8.95041 4.85959C9.77872 4.03141 10.9024 3.56552 12.0737 3.56543ZM12.0737 5.44451C11.4005 5.4446 10.7543 5.71143 10.2782 6.18737C9.80209 6.66347 9.53541 7.30959 9.53532 7.98289C9.53532 8.65615 9.80222 9.30226 10.2782 9.77841C10.7543 10.2543 11.4005 10.5222 12.0737 10.5223C12.7469 10.5222 13.3932 10.2545 13.8692 9.77841C14.3452 9.30225 14.6131 8.65619 14.6131 7.98289C14.613 7.30971 14.3452 6.66345 13.8692 6.18737C13.3932 5.71153 12.7468 5.44464 12.0737 5.44451Z" fill="black"/>
</svg>
