<svg width="24" height="24" viewBox="0 0 24 24" fill="none" xmlns="http://www.w3.org/2000/svg">
<g clip-path="url(#clip0_860_1736)">
<path d="M19.3944 12.5371V9.09189C19.3943 8.83107 19.2906 8.58152 19.1061 8.39709C18.9217 8.21265 18.6721 8.10891 18.4113 8.10879H17.4268C16.6439 8.10879 15.8931 7.79738 15.3395 7.24389C14.7859 6.69035 14.4747 5.93939 14.4746 5.15659H8.57018C8.57005 5.93939 8.25881 6.69035 7.70528 7.24389C7.15166 7.79738 6.40084 8.10879 5.61798 8.10879H4.63344C4.37262 8.10891 4.12307 8.21265 3.93864 8.39709C3.7542 8.58152 3.65046 8.83107 3.65033 9.09189V17.9485C3.65033 18.2095 3.75409 18.4602 3.93864 18.6447C4.12305 18.829 4.37274 18.9329 4.63344 18.933H11.5224C12.0659 18.933 12.5069 19.3741 12.5069 19.9176C12.5067 20.4608 12.0657 20.9007 11.5224 20.9007H4.63344C3.85064 20.9005 3.09968 20.5893 2.54614 20.0358C1.9928 19.4822 1.68124 18.7312 1.68124 17.9485V9.09189C1.68137 8.30909 1.99261 7.55813 2.54614 7.0046C3.09968 6.45107 3.85064 6.13982 4.63344 6.1397H5.61798C5.87898 6.1397 6.12968 6.03594 6.31423 5.85139C6.49836 5.66701 6.6024 5.41718 6.60253 5.15659C6.60253 4.63461 6.81004 4.1332 7.17913 3.7641C7.54818 3.39531 8.04843 3.1875 8.57018 3.1875H14.4746C14.9963 3.1875 15.4966 3.39531 15.8656 3.7641C16.2347 4.1332 16.4422 4.63461 16.4422 5.15659C16.4423 5.41718 16.5464 5.66701 16.7305 5.85139C16.9151 6.03594 17.1658 6.1397 17.4268 6.1397H18.4113C19.1941 6.13982 19.9451 6.45107 20.4986 7.0046C21.0521 7.55813 21.3634 8.30909 21.3635 9.09189V12.5371C21.3632 13.0803 20.9223 13.5202 20.379 13.5202C19.8356 13.5202 19.3947 13.0803 19.3944 12.5371Z" fill="black"/>
<path d="M13.4335 13.0004C13.4335 12.4934 13.2319 12.0078 12.8734 11.6493C12.515 11.2908 12.0293 11.0893 11.5224 11.0893C11.0154 11.0893 10.5298 11.2908 10.1713 11.6493C9.81277 12.0078 9.61123 12.4934 9.61123 13.0004C9.61123 13.5074 9.81277 13.993 10.1713 14.3515C10.5298 14.71 11.0154 14.9115 11.5224 14.9115C12.0293 14.9115 12.515 14.71 12.8734 14.3515C13.2319 13.993 13.4335 13.5074 13.4335 13.0004ZM15.346 13.0004C15.346 14.0144 14.9429 14.987 14.2259 15.704C13.5089 16.421 12.5363 16.8241 11.5224 16.8241C10.5084 16.8241 9.53576 16.421 8.81877 15.704C8.10179 14.987 7.6987 14.0144 7.6987 13.0004C7.6987 11.9864 8.10179 11.0138 8.81877 10.2968C9.53576 9.57985 10.5084 9.17676 11.5224 9.17676C12.5363 9.17676 13.5089 9.57985 14.2259 10.2968C14.9429 11.0138 15.346 11.9864 15.346 13.0004Z" fill="black"/>
<path d="M20.3138 16.68L20.3138 22.4148C20.3138 22.9427 19.9311 23.3711 19.4595 23.3711C18.9879 23.3711 18.6051 22.9427 18.6051 22.4148L18.6051 16.68C18.6051 16.1522 18.9879 15.7238 19.4595 15.7238C19.9311 15.7238 20.3138 16.1522 20.3138 16.68Z" fill="black"/>
<path d="M19.9802 23.1927C19.656 23.4572 19.1781 23.4385 18.8759 23.1363L16.3995 20.66C16.0772 20.3376 16.0772 19.8151 16.3995 19.4927C16.7219 19.1704 17.2444 19.1704 17.5668 19.4927L19.4595 21.3854L21.3522 19.4927C21.6746 19.1704 22.1971 19.1704 22.5194 19.4927C22.8418 19.8151 22.8418 20.3376 22.5194 20.66L20.0431 23.1363L19.9802 23.1927Z" fill="black"/>
</g>
<defs>
<clipPath id="clip0_860_1736">
<rect width="24" height="24" fill="white"/>
</clipPath>
</defs>
</svg>
