<svg width="24" height="24" viewBox="0 0 24 24" fill="none" xmlns="http://www.w3.org/2000/svg">
<g clip-path="url(#clip0_860_1830)">
<path d="M16 8V5.33301C15.9999 4.9795 15.8593 4.6406 15.6094 4.39062C15.3594 4.14065 15.0205 4.00009 14.667 4H5.33301C4.9795 4.00009 4.6406 4.14065 4.39062 4.39062C4.14065 4.6406 4.00009 4.9795 4 5.33301V14.667C4.00009 15.0205 4.14065 15.3594 4.39062 15.6094C4.6406 15.8593 4.9795 15.9999 5.33301 16H8C8.55213 16.0002 9 16.4478 9 17C9 17.5522 8.55213 17.9998 8 18H5.33301C4.44907 17.9999 3.60161 17.6485 2.97656 17.0234C2.35152 16.3984 2.00009 15.5509 2 14.667V5.33301C2.00009 4.44907 2.35152 3.60161 2.97656 2.97656C3.60161 2.35152 4.44907 2.00009 5.33301 2H14.667C15.5509 2.00009 16.3984 2.35152 17.0234 2.97656C17.6485 3.60161 17.9999 4.44907 18 5.33301V8C17.9998 8.55213 17.5522 9 17 9C16.4478 9 16.0002 8.55213 16 8Z" fill="black"/>
<path d="M10.7458 10.2633C10.9868 10.0223 11.3433 9.93849 11.6666 10.0463L21.5641 13.3448C21.9093 13.4599 22.1507 13.7718 22.1766 14.1348C22.2024 14.4978 22.0074 14.841 21.6819 15.0038L17.4036 16.8739L15.4863 21.1994C15.3235 21.5249 14.9803 21.7199 14.6173 21.6941C14.2543 21.6682 13.9424 21.4268 13.8273 21.0816L10.5287 11.1842C10.421 10.8608 10.5048 10.5043 10.7458 10.2633ZM14.8475 18.4517L15.9283 15.8011L16.0029 15.6772C16.0876 15.5597 16.1999 15.464 16.3307 15.3986L18.9342 14.365L12.8037 12.3212L14.8475 18.4517Z" fill="black"/>
</g>
<defs>
<clipPath id="clip0_860_1830">
<rect width="24" height="24" fill="white"/>
</clipPath>
</defs>
</svg>
