<svg width="24" height="24" viewBox="0 0 24 24" fill="none" xmlns="http://www.w3.org/2000/svg">
<path d="M11.9998 22.001C6.47697 22.001 1.99982 17.5238 1.99982 12.001C1.99982 6.47813 6.47697 2.00098 11.9998 2.00098C17.5226 2.00098 21.9998 6.47813 21.9998 12.001C21.9998 17.5238 17.5226 22.001 11.9998 22.001ZM9.70984 19.6684C8.74725 17.6269 8.15714 15.3752 8.02713 13.001H4.06171C4.45782 16.1775 6.71621 18.7757 9.70984 19.6684ZM10.0305 13.001C10.1809 15.4398 10.8776 17.7307 11.9998 19.753C13.122 17.7307 13.8187 15.4398 13.9691 13.001H10.0305ZM19.9379 13.001H15.9725C15.8425 15.3752 15.2524 17.6269 14.2898 19.6684C17.2834 18.7757 19.5418 16.1775 19.9379 13.001ZM4.06171 11.001H8.02713C8.15714 8.62675 8.74725 6.37505 9.70984 4.33354C6.71621 5.22631 4.45782 7.82448 4.06171 11.001ZM10.0305 11.001H13.9691C13.8187 8.5622 13.122 6.27123 11.9998 4.24897C10.8776 6.27123 10.1809 8.5622 10.0305 11.001ZM14.2898 4.33354C15.2524 6.37505 15.8425 8.62675 15.9725 11.001H19.9379C19.5418 7.82448 17.2834 5.22631 14.2898 4.33354Z" fill="black"/>
</svg>
