<svg width="24" height="24" viewBox="0 0 24 24" fill="none" xmlns="http://www.w3.org/2000/svg">
<path d="M20 3C20.5499 3 21.0205 3.19639 21.4121 3.58789C21.8037 3.97944 21.9999 4.45021 22 5V17C22 17.55 21.8038 18.0214 21.4121 18.4131C21.0205 18.8046 20.5499 19 20 19H16V21H8V19H4C3.45012 19 2.97951 18.8046 2.58789 18.4131C2.19622 18.0214 2 17.55 2 17V5C2.00012 4.45021 2.19634 3.97944 2.58789 3.58789C2.97951 3.19639 3.45012 3 4 3H20ZM4 17H20V5H4V17ZM16.5 11L9.5 15.5V6.5L16.5 11Z" fill="black"/>
</svg>
