<svg width="24" height="24" viewBox="0 0 24 24" fill="none" xmlns="http://www.w3.org/2000/svg">
<path d="M9.06894 15.1392C8.8558 15.4912 8.75034 15.7778 8.92063 16.2253C9.3907 17.4613 8.72757 18.664 7.48117 18.9905C6.30576 19.2985 5.16055 18.526 4.92733 17.2676C4.72068 16.1537 5.58508 15.0617 6.81314 14.8877C6.87983 14.8781 6.94737 14.874 7.03371 14.8688C7.08064 14.866 7.13313 14.8628 7.19404 14.8582L9.06214 11.7257C7.8872 10.5574 7.18787 9.19164 7.34266 7.49936C7.45208 6.30308 7.92246 5.26933 8.78228 4.42201C10.429 2.79945 12.9413 2.53667 14.8802 3.78212C16.7425 4.97841 17.5953 7.30867 16.8683 9.30311L15.1613 8.84C15.3897 7.73115 15.2208 6.73536 14.4729 5.88234C13.9788 5.31914 13.3448 5.02394 12.6238 4.91516C11.1785 4.69681 9.75942 5.6254 9.33836 7.04399C8.86039 8.65406 9.58375 9.96924 11.5605 10.9603C10.7313 12.3541 9.90879 13.7518 9.06894 15.1392ZM13.984 9.27337C14.5818 10.328 15.1888 11.3986 15.7904 12.4593C18.8312 11.5186 21.1239 13.2018 21.9464 15.004C22.9398 17.1809 22.2607 19.7593 20.3096 21.1023C18.3069 22.481 15.7743 22.2454 13.9999 20.4744L15.3921 19.3094C17.1446 20.4445 18.6774 20.3911 19.8153 19.047C20.7857 17.9003 20.7646 16.1906 19.7661 15.068C18.6138 13.7726 17.0703 13.7331 15.2046 14.9767C14.4307 13.6037 13.6432 12.2413 12.8938 10.8585C12.6411 10.3923 12.362 10.122 11.7925 10.0233C10.8413 9.85839 10.2272 9.04157 10.1904 8.12642C10.1541 7.22138 10.6873 6.4033 11.5207 6.08455C12.3462 5.7688 13.315 6.02367 13.8703 6.72554C14.3241 7.29901 14.4683 7.94443 14.2295 8.65167C14.1845 8.7852 14.1306 8.91584 14.0715 9.05885C14.0433 9.12694 14.014 9.19801 13.984 9.27337ZM11.7522 17.895H15.4128C15.4638 17.963 15.5115 18.0303 15.5581 18.0959C15.6553 18.233 15.7476 18.3632 15.8553 18.4788C16.6306 19.3077 17.9397 19.3489 18.7684 18.5795C19.6273 17.7821 19.6662 16.4426 18.8546 15.6101C18.0604 14.7955 16.7031 14.7177 15.9657 15.5802C15.5178 16.1044 15.0588 16.166 14.4643 16.1567C12.9416 16.1332 11.4179 16.149 9.89544 16.149C9.99426 18.2909 9.18456 19.6255 7.57861 19.9424C6.00602 20.2528 4.5577 19.4504 4.04779 17.9864C3.46862 16.3229 4.18487 14.9925 6.25441 13.9366C6.09867 13.3725 5.94135 12.8016 5.78561 12.236C3.52997 12.7276 1.83769 14.916 2.0124 17.378C2.16672 19.5514 3.91988 21.4815 6.06389 21.8273C7.22839 22.0153 8.32253 21.82 9.33761 21.2442C10.6435 20.5032 11.4013 19.3381 11.7522 17.895Z" fill="black"/>
</svg>
