<svg width="24" height="24" viewBox="0 0 24 24" fill="none" xmlns="http://www.w3.org/2000/svg">
<path d="M20 12C20 10.9494 19.7927 9.90908 19.3906 8.93848C18.9886 7.96795 18.4 7.08559 17.6572 6.34277C16.9144 5.59995 16.0321 5.01141 15.0615 4.60938C14.0909 4.20734 13.0506 4 12 4C10.9494 4 9.90908 4.20734 8.93848 4.60938C7.96795 5.01141 7.08559 5.59995 6.34277 6.34277C5.59995 7.08559 5.01141 7.96795 4.60938 8.93848C4.20734 9.90908 4 10.9494 4 12C4 13.0506 4.20734 14.0909 4.60938 15.0615C5.01141 16.0321 5.59995 16.9144 6.34277 17.6572C7.08559 18.4 7.96795 18.9886 8.93848 19.3906C9.90908 19.7927 10.9494 20 12 20C13.0506 20 14.0909 19.7927 15.0615 19.3906C16.0321 18.9886 16.9144 18.4 17.6572 17.6572C18.4 16.9144 18.9886 16.0321 19.3906 15.0615C19.7927 14.0909 20 13.0506 20 12ZM22 12C22 13.3132 21.7418 14.6139 21.2393 15.8271C20.7367 17.0404 19.9998 18.1427 19.0713 19.0713C18.1427 19.9998 17.0404 20.7367 15.8271 21.2393C14.6139 21.7418 13.3132 22 12 22C10.6868 22 9.38611 21.7418 8.17285 21.2393C6.95964 20.7367 5.85727 19.9998 4.92871 19.0713C4.00015 18.1427 3.26329 17.0404 2.76074 15.8271C2.2582 14.6139 2 13.3132 2 12C2 10.6868 2.2582 9.38611 2.76074 8.17285C3.26329 6.95964 4.00015 5.85727 4.92871 4.92871C5.85727 4.00015 6.95964 3.26329 8.17285 2.76074C9.38611 2.2582 10.6868 2 12 2C13.3132 2 14.6139 2.2582 15.8271 2.76074C17.0404 3.26329 18.1427 4.00015 19.0713 4.92871C19.9998 5.85727 20.7367 6.95964 21.2393 8.17285C21.7418 9.38611 22 10.6868 22 12Z" fill="black"/>
<path d="M11.168 11.4454C11.4743 10.9859 12.0952 10.8617 12.5547 11.1681L15.5547 13.1681C16.0142 13.4744 16.1384 14.0952 15.8321 14.5548C15.5257 15.0143 14.9049 15.1385 14.4453 14.8321L11.4453 12.8321C10.9858 12.5258 10.8616 11.9049 11.168 11.4454Z" fill="black"/>
<path d="M11 12V7C11 6.44772 11.4477 6 12 6C12.5523 6 13 6.44772 13 7V12C13 12.5523 12.5523 13 12 13C11.4477 13 11 12.5523 11 12Z" fill="black"/>
</svg>
