<svg width="24" height="24" viewBox="0 0 24 24" fill="none" xmlns="http://www.w3.org/2000/svg">
<g clip-path="url(#clip0_860_1733)">
<path d="M8.29302 5.29253C8.6834 4.90241 9.31611 4.90257 9.70659 5.29253C10.0971 5.68305 10.0971 6.31704 9.70659 6.70757L6.41362 9.99907L9.70659 13.2935C10.0971 13.684 10.0971 14.3166 9.70659 14.7071C9.31605 15.0974 8.68346 15.0975 8.29302 14.7071L4.29253 10.7066C3.90257 10.3161 3.90241 9.6834 4.29253 9.29302L8.29302 5.29253Z" fill="black"/>
<path d="M18.9995 14.001C18.9995 13.2053 18.6832 12.4425 18.1206 11.8799C17.558 11.3173 16.7952 11.001 15.9995 11.001H5C4.44772 11.001 3.99951 10.5528 3.99951 10.0005C3.99951 9.4482 4.44772 9 5 9H15.9995C17.3256 9 18.598 9.52716 19.5356 10.4648C20.4733 11.4025 21.0005 12.6749 21.0005 14.001C21.0004 15.3268 20.4731 16.5981 19.5356 17.5356C18.598 18.4733 17.3256 19.0005 15.9995 19.0005H15.0005C14.4482 19.0005 14 18.5523 14 18C14.0003 17.4479 14.4484 17.001 15.0005 17.001H15.9995C16.7949 17.001 17.558 16.6844 18.1206 16.1221C18.6831 15.5596 18.9994 14.7964 18.9995 14.001Z" fill="black"/>
</g>
<defs>
<clipPath id="clip0_860_1733">
<rect width="24" height="24" fill="white"/>
</clipPath>
</defs>
</svg>
