<svg width="22" height="22" viewBox="0 0 22 22" fill="none" xmlns="http://www.w3.org/2000/svg">
<path d="M6.46431 19.0048C6.30684 18.8473 6.22811 18.6469 6.22811 18.4036C6.22811 18.1602 6.30684 17.9598 6.46431 17.8023L10.5657 13.6795C10.8949 13.3502 11.3029 13.1856 11.7896 13.1856C12.2764 13.1856 12.6844 13.3502 13.0136 13.6795L14.7959 15.4617L18.6396 11.6181C18.8113 11.4463 19.0118 11.3604 19.2408 11.3604C19.4698 11.3604 19.6703 11.4463 19.842 11.6181C20.0138 11.7898 20.0997 11.9938 20.0997 12.23C20.0997 12.4662 20.0138 12.6702 19.842 12.842L16.0198 16.6857C15.6906 17.015 15.2862 17.1796 14.8066 17.1796C14.327 17.1796 13.9226 17.015 13.5934 16.6857L11.7896 14.882L7.6668 19.0048C7.50933 19.1623 7.3125 19.2446 7.07629 19.2517C6.84009 19.2589 6.63609 19.1766 6.46431 19.0048ZM4.14522 18.7471C3.67281 18.7471 3.2684 18.5789 2.93199 18.2425C2.59557 17.9061 2.42737 17.5017 2.42737 17.0293V5.00435C2.42737 4.53194 2.59557 4.12753 2.93199 3.79112C3.2684 3.4547 3.67281 3.2865 4.14522 3.2865H16.1701C16.6426 3.2865 17.047 3.4547 17.3834 3.79112C17.7198 4.12753 17.888 4.53194 17.888 5.00435V8.44004C17.888 8.6834 17.8057 8.8874 17.6411 9.05203C17.4764 9.21665 17.2724 9.29897 17.0291 9.29897H4.14522V18.7471ZM4.14522 7.58112H16.1701V5.00435H4.14522V7.58112Z" fill="#969FAF"/>
<path d="M16.1702 11.9831C16.6426 11.9831 17.047 11.8149 17.3834 11.4785C17.7199 11.1421 17.8881 10.7377 17.8881 10.2653V5.00435C17.8881 4.53194 17.7199 4.12753 17.3834 3.79112C17.047 3.4547 16.6426 3.2865 16.1702 3.2865H4.14528C3.67287 3.2865 3.26846 3.4547 2.93205 3.79112C2.59564 4.12753 2.42743 4.53194 2.42743 5.00435V8.44004C2.42743 8.6834 2.50974 8.8874 2.67437 9.05203C2.839 9.21665 3.04299 9.29897 3.28635 9.29897H16.1702V11.9831ZM16.1702 7.58112H4.14528V5.00435H16.1702V7.58112Z" fill="#969FAF"/>
</svg>
