<svg width="24" height="24" viewBox="0 0 24 24" fill="none" xmlns="http://www.w3.org/2000/svg">
<path d="M9.2998 2.84961C10.36 2.84961 11.3181 3.28991 12 3.99707C12.6819 3.28991 13.64 2.84961 14.7002 2.84961H20.0996C20.6795 2.84961 21.1504 3.3205 21.1504 3.90039V18.2998C21.1504 18.8797 20.6795 19.3496 20.0996 19.3496H13.0498V21.1504H10.9502V19.3496H3.90039C3.3205 19.3496 2.84961 18.8797 2.84961 18.2998V3.90039C2.84961 3.3205 3.3205 2.84961 3.90039 2.84961H9.2998ZM3.7207 19.1816C3.74924 19.1874 3.77817 19.1923 3.80762 19.1953C3.77817 19.1923 3.74924 19.1874 3.7207 19.1816ZM3.48633 19.0986C3.55552 19.1346 3.62977 19.1617 3.70801 19.1787C3.62977 19.1617 3.55552 19.1345 3.48633 19.0986ZM20.3252 19.1699C20.3363 19.167 20.3474 19.1644 20.3584 19.1611C20.3474 19.1644 20.3363 19.167 20.3252 19.1699ZM20.4766 19.1162C20.4845 19.1125 20.4922 19.1084 20.5 19.1045C20.4922 19.1084 20.4845 19.1125 20.4766 19.1162ZM20.6113 19.0391C20.6194 19.0335 20.6269 19.0273 20.6348 19.0215C20.6269 19.0273 20.6194 19.0335 20.6113 19.0391ZM3.34277 19.0059C3.35008 19.0116 3.35775 19.0169 3.36523 19.0225C3.35775 19.0169 3.35008 19.0116 3.34277 19.0059ZM3.22363 18.8926C3.23032 18.9002 3.2372 18.9076 3.24414 18.915C3.2372 18.9076 3.23032 18.9002 3.22363 18.8926ZM3.12988 18.7646C3.13344 18.7705 3.13694 18.7764 3.14062 18.7822C3.13694 18.7764 3.13344 18.7705 3.12988 18.7646ZM3 18.2998C3 18.362 3.00653 18.4228 3.01855 18.4814C3.00655 18.4228 3 18.362 3 18.2998ZM4.9502 17.25H10.9502V6.59961C10.95 5.68852 10.211 4.9502 9.2998 4.9502H4.9502V17.25ZM14.7002 4.9502C13.789 4.9502 13.05 5.68852 13.0498 6.59961V17.25H19.0498V4.9502H14.7002ZM10.3066 5.10742C10.4501 5.20442 10.5786 5.32184 10.6885 5.45508C10.7986 5.58844 10.8897 5.73787 10.958 5.89941C11.0035 6.00708 11.0385 6.12014 11.0625 6.2373C10.9666 5.76872 10.6896 5.36618 10.3066 5.10742ZM10 4.94141C10.0126 4.94674 10.0246 4.95337 10.0371 4.95898C9.97152 4.92948 9.90444 4.90246 9.83496 4.88086L10 4.94141ZM9.4834 4.80957H9.48438H9.4834ZM12.3945 3.83594C12.3492 3.87381 12.3042 3.91212 12.2607 3.95215C12.3042 3.91212 12.3492 3.87382 12.3945 3.83594ZM3.01562 3.73047C3.00512 3.78548 3 3.84233 3 3.90039L3.00488 3.80762C3.00795 3.77752 3.01259 3.7479 3.01855 3.71875L3.01562 3.73047ZM12.5293 3.72754C12.4955 3.75313 12.4626 3.77989 12.4297 3.80664C12.4626 3.77989 12.4955 3.75314 12.5293 3.72754ZM12.6787 3.62012C12.6513 3.63875 12.6245 3.65837 12.5977 3.67773C12.6245 3.65836 12.6513 3.63876 12.6787 3.62012ZM12.8369 3.51953C12.8068 3.5378 12.7766 3.55608 12.7471 3.5752C12.7766 3.55607 12.8068 3.53781 12.8369 3.51953ZM12.9883 3.43262C12.9594 3.44824 12.9307 3.46409 12.9023 3.48047C12.9307 3.46408 12.9594 3.44824 12.9883 3.43262ZM13.1406 3.35449C13.118 3.36536 13.0956 3.37638 13.0732 3.3877C13.0956 3.37637 13.118 3.36536 13.1406 3.35449ZM13.2969 3.28418C13.2802 3.29123 13.2636 3.29837 13.2471 3.30566C13.2636 3.29836 13.2802 3.29124 13.2969 3.28418ZM3.24219 3.28613C3.237 3.29169 3.23161 3.29705 3.22656 3.30273C3.23161 3.29705 3.237 3.29169 3.24219 3.28613ZM13.4844 3.21094C13.459 3.22005 13.4334 3.22862 13.4082 3.23828C13.4334 3.22861 13.459 3.22006 13.4844 3.21094ZM3.35742 3.18164C3.35446 3.18388 3.35156 3.1862 3.34863 3.18848C3.35156 3.1862 3.35446 3.18388 3.35742 3.18164ZM13.6455 3.15723C13.6246 3.16361 13.6037 3.17 13.583 3.17676C13.6037 3.17 13.6246 3.16362 13.6455 3.15723ZM13.7891 3.11621C13.7832 3.11774 13.7774 3.11953 13.7715 3.12109C13.7774 3.11953 13.7832 3.11775 13.7891 3.11621ZM3.50684 3.08984C3.50029 3.09303 3.49376 3.09627 3.4873 3.09961C3.49376 3.09627 3.50029 3.09303 3.50684 3.08984ZM3.59961 3.05176C3.5859 3.05661 3.57199 3.06091 3.55859 3.06641C3.57199 3.06091 3.5859 3.05661 3.59961 3.05176ZM14.207 3.03418C14.1786 3.03807 14.1503 3.04232 14.1221 3.04688C14.1503 3.04232 14.1786 3.03807 14.207 3.03418ZM3.70703 3.02148C3.68369 3.02659 3.66032 3.03121 3.6377 3.03809C3.66032 3.03121 3.68369 3.02659 3.70703 3.02148ZM12.125 4.08398C12.0822 4.1278 12.0406 4.1728 12 4.21875C12.0406 4.1728 12.0822 4.1278 12.125 4.08398ZM12.125 4.08398C12.1271 4.08184 12.1288 4.07928 12.1309 4.07715C12.1288 4.07928 12.1271 4.08184 12.125 4.08398Z" fill="black"/>
</svg>
