<svg width="24" height="24" viewBox="0 0 24 24" fill="none" xmlns="http://www.w3.org/2000/svg">
<path d="M13.9677 8.99973C13.8786 8.99969 13.5 9 13.5 9L5.00071 8.99973V18.999H19.0004V8.99973C19.0004 8.99973 14.0568 8.99978 13.9677 8.99973ZM21 18.999C21 19.5295 20.7891 20.0387 20.4141 20.4138C20.039 20.7886 19.5306 20.9997 19.0004 20.9997H5.00071C4.47028 20.9997 3.96101 20.7889 3.58594 20.4138C3.21086 20.0387 3 19.5295 3 18.999V5.99973C3 5.4693 3.21087 4.96003 3.58594 4.58496C3.96101 4.20989 4.47028 3.99902 5.00071 3.99902H10.533C10.8261 3.99918 11.1157 4.06427 11.381 4.18865C11.6464 4.31307 11.8817 4.49401 12.0692 4.71919L13.9688 6.99902H19.0004C19.5306 6.99902 20.039 7.21011 20.4141 7.58496C20.7891 7.96003 21 8.4693 21 8.99973V18.999ZM5.00071 6.99902H11.3651L10.532 5.99973H5.00071V6.99902Z" fill="black"/>
<path d="M12.9346 11.4345C13.247 11.1221 13.753 11.1221 14.0654 11.4345L15.8994 13.2675C16.2117 13.58 16.2118 14.087 15.8994 14.3994L14.0654 16.2324C13.7531 16.5446 13.2469 16.5446 12.9346 16.2324C12.6222 15.9199 12.6222 15.4129 12.9346 15.1005L13.4014 14.6337H8C7.55817 14.6337 7.2002 14.2748 7.2002 13.8329C7.20037 13.3913 7.55828 13.0331 8 13.0331H13.4023L12.9346 12.5654C12.6222 12.2529 12.6222 11.7469 12.9346 11.4345Z" fill="black"/>
</svg>
