<svg width="24" height="24" viewBox="0 0 24 24" fill="none" xmlns="http://www.w3.org/2000/svg">
<path d="M18.3343 6.35269C18.4708 5.87487 18.9691 5.59762 19.447 5.73394C19.9248 5.87045 20.202 6.36881 20.0657 6.84664L17.1451 17.0692C17.0475 17.4112 16.8422 17.7132 16.5606 17.9305C16.279 18.1477 15.9353 18.2692 15.5798 18.2768C15.224 18.2845 14.8748 18.1778 14.584 17.9727C14.2933 17.7677 14.0757 17.4744 13.9635 17.1369V17.136L12 11.2447L10.0356 17.136L10.0365 17.1369C9.9243 17.4744 9.70666 17.7677 9.416 17.9727C9.12521 18.1778 8.77593 18.2845 8.4202 18.2768C8.06467 18.2692 7.72093 18.1477 7.43934 17.9305C7.15776 17.7132 6.95251 17.4112 6.85487 17.0692L3.93426 6.84664C3.79794 6.36881 4.07519 5.87045 4.55301 5.73394C5.03084 5.59762 5.52919 5.87487 5.6657 6.35269L8.46502 16.1551L11.1466 8.1149L11.2019 7.98306C11.3551 7.68938 11.661 7.49966 12 7.49966C12.3873 7.49966 12.7308 7.74754 12.8534 8.1149L15.5341 16.1551L18.3343 6.35269Z" fill="black"/>
<path d="M20.1 10.1982C20.5971 10.1982 21 10.6012 21 11.0982C21 11.5953 20.5971 11.9982 20.1 11.9982H3.9C3.40294 11.9982 3 11.5953 3 11.0982C3 10.6012 3.40294 10.1982 3.9 10.1982H20.1Z" fill="black"/>
</svg>
