<svg width="24" height="24" viewBox="0 0 24 24" fill="none" xmlns="http://www.w3.org/2000/svg">
<path d="M13 7V3C13 2.44772 13.4477 2 14 2C14.5523 2 15 2.44772 15 3V7H19C19.5523 7 20 7.44772 20 8C20 8.55228 19.5523 9 19 9H15C14.4696 9 13.961 8.78913 13.5859 8.41406C13.2109 8.03899 13 7.53043 13 7Z" fill="black"/>
<path d="M13 7V3C13 2.44772 13.4477 2 14 2C14.5523 2 15 2.44772 15 3V7H19C19.5523 7 20 7.44772 20 8C20 8.55228 19.5523 9 19 9H15C14.4696 9 13.961 8.78913 13.5859 8.41406C13.2109 8.03899 13 7.53043 13 7Z" fill="black"/>
<path d="M19.5 14C20.0523 14 20.5 14.4477 20.5 15C20.5 15.5523 20.0523 16 19.5 16H16.5C15.9477 16 15.5 15.5523 15.5 15C15.5 14.4477 15.9477 14 16.5 14H19.5Z" fill="black"/>
<path d="M4 12V5C4 4.20435 4.3163 3.44152 4.87891 2.87891C5.44152 2.3163 6.20435 2 7 2H14C14.2652 2 14.5195 2.10543 14.707 2.29297L19.707 7.29297C19.8946 7.4805 20 7.73478 20 8V12C20 12.5523 19.5523 13 19 13C18.4477 13 18 12.5523 18 12V8.41406L13.5859 4H7C6.73478 4 6.4805 4.10543 6.29297 4.29297C6.10543 4.4805 6 4.73478 6 5V12C6 12.5523 5.55228 13 5 13C4.44772 13 4 12.5523 4 12Z" fill="black"/>
<path d="M7.5 14C8.05228 14 8.5 14.4477 8.5 15C8.5 15.5523 8.05228 16 7.5 16H4.5C3.94772 16 3.5 15.5523 3.5 15C3.5 14.4477 3.94772 14 4.5 14H7.5Z" fill="black"/>
<path d="M5 21V15C5 14.4477 5.44772 14 6 14C6.55228 14 7 14.4477 7 15V21C7 21.5523 6.55228 22 6 22C5.44772 22 5 21.5523 5 21Z" fill="black"/>
<path d="M17 21V15C17 14.4477 17.4477 14 18 14C18.5523 14 19 14.4477 19 15V21C19 21.5523 18.5523 22 18 22C17.4477 22 17 21.5523 17 21Z" fill="black"/>
<path d="M9.44534 14.1681C9.90487 13.8617 10.5257 13.9859 10.8321 14.4454L14.8321 20.4454C15.1384 20.9049 15.0142 21.5258 14.5547 21.8321C14.0952 22.1385 13.4743 22.0143 13.168 21.5548L9.168 15.5548C8.86164 15.0952 8.98581 14.4744 9.44534 14.1681Z" fill="black"/>
<path d="M13.168 14.4454C13.4743 13.9859 14.0952 13.8617 14.5547 14.1681C15.0142 14.4744 15.1384 15.0952 14.8321 15.5548L10.8321 21.5548C10.5257 22.0143 9.90487 22.1385 9.44534 21.8321C8.98581 21.5258 8.86164 20.9049 9.168 20.4454L13.168 14.4454Z" fill="black"/>
</svg>
