<svg width="21" height="21" viewBox="0 0 21 21" fill="none" xmlns="http://www.w3.org/2000/svg">
<path fill-rule="evenodd" clip-rule="evenodd" d="M11.8462 4.37518C13.8289 4.57091 15.3836 5.1769 15.556 6.98199C15.673 8.29794 15.1182 9.08093 14.2008 9.5222C15.6819 9.8919 16.5828 10.7611 16.3967 12.6892C16.17 15.1059 14.3621 15.7336 11.7772 15.866L11.7813 18.361L10.259 18.363L10.2549 15.8679C10.0886 15.8655 9.91468 15.868 9.73632 15.8706L9.73622 15.8706C9.49782 15.874 9.25146 15.8775 9.00457 15.8696L9.00862 18.3646L7.4891 18.3665L7.48505 15.8715L4.44069 15.8114L4.69725 13.9879C4.69725 13.9879 5.84705 14.0132 5.82573 14.0001C6.24902 13.9978 6.37465 13.6977 6.40594 13.5006L6.39836 9.501L6.41032 6.65438C6.36358 6.35767 6.16166 6.00165 5.53934 5.99084C5.57324 5.96045 4.42475 5.99227 4.42475 5.99227L4.4209 4.32064L7.54059 4.31663L7.53662 1.87272L9.10829 1.8707L9.11226 4.31461C9.41566 4.30621 9.71495 4.30861 10.0176 4.31104C10.1169 4.31184 10.2166 4.31264 10.317 4.31306L10.313 1.86915L11.8422 1.86719L11.8462 4.37518ZM8.92526 8.97365L9.00244 8.97697C9.92767 9.01732 12.671 9.13694 12.6752 7.47366C12.671 5.89452 10.3362 5.94548 9.25143 5.96915C9.1233 5.97195 9.01261 5.97436 8.92526 5.97367V8.97365ZM9.0547 13.8734C9.0061 13.8714 8.96132 13.8695 8.92075 13.868L8.92075 10.868C9.01741 10.8689 9.13895 10.8674 9.2795 10.8656C10.5615 10.8497 13.4251 10.814 13.4115 12.406C13.426 14.0526 10.1937 13.9201 9.0547 13.8734Z" fill="#323232"/>
</svg>
