<svg width="24" height="24" viewBox="0 0 24 24" fill="none" xmlns="http://www.w3.org/2000/svg">
<path d="M20 6C20.5523 6 21 6.44772 21 7C21 7.55228 20.5523 8 20 8H4C3.44772 8 3 7.55228 3 7C3 6.44772 3.44772 6 4 6H20Z" fill="black"/>
<path d="M9 17V11C9 10.4477 9.44772 10 10 10C10.5523 10 11 10.4477 11 11V17C11 17.5523 10.5523 18 10 18C9.44772 18 9 17.5523 9 17Z" fill="black"/>
<path d="M13 17V11C13 10.4477 13.4477 10 14 10C14.5523 10 15 10.4477 15 11V17C15 17.5523 14.5523 18 14 18C13.4477 18 13 17.5523 13 17Z" fill="black"/>
<path d="M19.083 6.00351C19.6334 6.04938 20.0419 6.53224 19.9961 7.08261L18.9961 19.0826C18.9749 19.8481 18.6641 20.5777 18.1211 21.1207C17.5585 21.6833 16.7956 21.9996 16 21.9996H7.99997C7.20432 21.9996 6.44149 21.6833 5.87888 21.1207C5.33588 20.5777 5.02507 19.8481 5.00388 19.0826L4.00388 7.08261C3.95801 6.53224 4.36659 6.04938 4.91697 6.00351C5.46734 5.95765 5.9502 6.36622 5.99607 6.9166L6.99607 18.9166C6.99837 18.9442 6.99997 18.9719 6.99997 18.9996C6.99997 19.2648 7.10541 19.5191 7.29294 19.7066C7.48048 19.8942 7.73476 19.9996 7.99997 19.9996H16C16.2652 19.9996 16.5195 19.8942 16.707 19.7066C16.8945 19.5191 17 19.2648 17 18.9996C17 18.9719 17.0016 18.9442 17.0039 18.9166L18.0039 6.9166C18.0497 6.36622 18.5326 5.95765 19.083 6.00351Z" fill="black"/>
<path d="M14 7V4H10V7C10 7.55228 9.55228 8 9 8C8.44772 8 8 7.55228 8 7V4C8 3.46957 8.21087 2.96101 8.58594 2.58594C8.96101 2.21086 9.46957 2 10 2H14C14.5304 2 15.039 2.21086 15.4141 2.58594C15.7891 2.96101 16 3.46957 16 4V7C16 7.55228 15.5523 8 15 8C14.4477 8 14 7.55228 14 7Z" fill="black"/>
</svg>
