<svg width="24" height="24" viewBox="0 0 24 24" fill="none" xmlns="http://www.w3.org/2000/svg">
<path d="M10 12C10 11.4696 10.2109 10.961 10.5859 10.5859C10.961 10.2109 11.4696 10 12 10C12.5304 10 13.039 10.2109 13.4141 10.5859C13.7891 10.961 14 11.4696 14 12C14 12.5304 13.7891 13.039 13.4141 13.4141C13.039 13.7891 12.5304 14 12 14C11.4696 14 10.961 13.7891 10.5859 13.4141C10.2109 13.039 10 12.5304 10 12Z" fill="black"/>
<path d="M10 19C10 18.4696 10.2109 17.961 10.5859 17.5859C10.961 17.2109 11.4696 17 12 17C12.5304 17 13.039 17.2109 13.4141 17.5859C13.7891 17.961 14 18.4696 14 19C14 19.5304 13.7891 20.039 13.4141 20.4141C13.039 20.7891 12.5304 21 12 21C11.4696 21 10.961 20.7891 10.5859 20.4141C10.2109 20.039 10 19.5304 10 19Z" fill="black"/>
<path d="M10 5C10 4.46957 10.2109 3.96101 10.5859 3.58594C10.961 3.21087 11.4696 3 12 3C12.5304 3 13.039 3.21087 13.4141 3.58594C13.7891 3.96101 14 4.46957 14 5C14 5.53043 13.7891 6.03899 13.4141 6.41406C13.039 6.78913 12.5304 7 12 7C11.4696 7 10.961 6.78913 10.5859 6.41406C10.2109 6.03899 10 5.53043 10 5Z" fill="black"/>
</svg>
