<svg width="22" height="22" viewBox="0 0 22 22" fill="none" xmlns="http://www.w3.org/2000/svg">
<g clip-path="url(#clip0_104_15723)">
<path d="M15.8213 7.14306V4.25018C15.8213 3.99444 15.7197 3.74916 15.5389 3.56832C15.3581 3.38748 15.1128 3.28589 14.857 3.28589H5.21411C4.70262 3.28589 4.21207 3.48908 3.85039 3.85076C3.48871 4.21244 3.28552 4.70298 3.28552 5.21448M3.28552 5.21448C3.28552 5.72597 3.48871 6.21651 3.85039 6.57819C4.21207 6.93987 4.70262 7.14306 5.21411 7.14306H16.7856C17.0414 7.14306 17.2867 7.24466 17.4675 7.4255C17.6483 7.60634 17.7499 7.85161 17.7499 8.10736V11.0002M3.28552 5.21448V16.786C3.28552 17.2975 3.48871 17.788 3.85039 18.1497C4.21207 18.5114 4.70262 18.7146 5.21411 18.7146H16.7856C17.0414 18.7146 17.2867 18.613 17.4675 18.4322C17.6483 18.2513 17.7499 18.006 17.7499 17.7503V14.8574" stroke="#969FAF" stroke-width="1.54688" stroke-linecap="round" stroke-linejoin="round"/>
<path d="M18.7144 11.0001V14.8573H14.8572C14.3457 14.8573 13.8552 14.6541 13.4935 14.2924C13.1318 13.9307 12.9286 13.4402 12.9286 12.9287C12.9286 12.4172 13.1318 11.9267 13.4935 11.565C13.8552 11.2033 14.3457 11.0001 14.8572 11.0001H18.7144Z" stroke="#969FAF" stroke-width="1.54688" stroke-linecap="round" stroke-linejoin="round"/>
</g>
<defs>
<clipPath id="clip0_104_15723">
<rect width="22" height="22" fill="white"/>
</clipPath>
</defs>
</svg>
