<svg width="24" height="24" viewBox="0 0 24 24" fill="none" xmlns="http://www.w3.org/2000/svg">
<path d="M1 17C1 15.4833 1.2875 14.0583 1.8625 12.725C2.4375 11.3917 3.225 10.225 4.225 9.225C5.225 8.225 6.39167 7.4375 7.725 6.8625C9.05833 6.2875 10.4833 6 12 6C13.5167 6 14.9417 6.2875 16.275 6.8625C17.6083 7.4375 18.775 8.225 19.775 9.225C20.775 10.225 21.5625 11.3917 22.1375 12.725C22.7125 14.0583 23 15.4833 23 17H21C21 14.5167 20.1208 12.3958 18.3625 10.6375C16.6042 8.87917 14.4833 8 12 8C9.51667 8 7.39583 8.87917 5.6375 10.6375C3.87917 12.3958 3 14.5167 3 17H1ZM5 17C5 15.0667 5.68333 13.4167 7.05 12.05C8.41667 10.6833 10.0667 10 12 10C13.9333 10 15.5833 10.6833 16.95 12.05C18.3167 13.4167 19 15.0667 19 17H17C17 15.6167 16.5125 14.4375 15.5375 13.4625C14.5625 12.4875 13.3833 12 12 12C10.6167 12 9.4375 12.4875 8.4625 13.4625C7.4875 14.4375 7 15.6167 7 17H5Z" fill="white"/>
</svg>
