<svg width="24" height="24" viewBox="0 0 24 24" fill="none" xmlns="http://www.w3.org/2000/svg">
<path d="M20 13.5V6C20 5.73478 19.8946 5.48051 19.707 5.29297C19.5195 5.10543 19.2652 5 19 5H5C4.73478 5 4.4805 5.10543 4.29297 5.29297C4.10543 5.4805 4 5.73478 4 6V16C4 16.2652 4.10543 16.5195 4.29297 16.707C4.48051 16.8946 4.73478 17 5 17H12C12.5523 17 13 17.4477 13 18C13 18.5523 12.5523 19 12 19H5C4.20435 19 3.44151 18.6837 2.87891 18.1211C2.3163 17.5585 2 16.7956 2 16V6C2 5.20435 2.3163 4.44152 2.87891 3.87891C3.44152 3.3163 4.20435 3 5 3H19C19.7957 3 20.5585 3.3163 21.1211 3.87891C21.6837 4.44152 22 5.20435 22 6V13.5C22 14.0523 21.5523 14.5 21 14.5C20.4477 14.5 20 14.0523 20 13.5Z" fill="black"/>
<path d="M20.4453 5.16806C20.9049 4.86171 21.5257 4.98587 21.8321 5.4454C22.1384 5.90493 22.0142 6.52577 21.5547 6.83212L12.5547 12.8321C12.2188 13.0561 11.7812 13.0561 11.4453 12.8321L2.44534 6.83212C1.98581 6.52577 1.86164 5.90493 2.168 5.4454C2.47435 4.98587 3.09519 4.86171 3.55472 5.16806L12 10.7979L20.4453 5.16806Z" fill="black"/>
<path d="M21 17C21.5523 17 22 17.4477 22 18C22 18.5523 21.5523 19 21 19H15C14.4477 19 14 18.5523 14 18C14 17.4477 14.4477 17 15 17H21Z" fill="black"/>
<path d="M17.293 14.2929C17.6835 13.9024 18.3165 13.9024 18.707 14.2929L21.707 17.2929C22.0975 17.6834 22.0975 18.3164 21.707 18.707L18.707 21.707C18.3165 22.0975 17.6835 22.0975 17.293 21.707C16.9024 21.3164 16.9024 20.6834 17.293 20.2929L19.5859 17.9999L17.293 15.707C16.9024 15.3164 16.9024 14.6834 17.293 14.2929Z" fill="black"/>
</svg>
