<svg width="24" height="24" viewBox="0 0 24 24" fill="none" xmlns="http://www.w3.org/2000/svg">
<path d="M8 12C8 11.4696 7.78913 10.961 7.41406 10.5859C7.03899 10.2109 6.53043 10 6 10C5.46957 10 4.96101 10.2109 4.58594 10.5859C4.21087 10.961 4 11.4696 4 12C4 12.5304 4.21087 13.039 4.58594 13.4141C4.96101 13.7891 5.46957 14 6 14C6.53043 14 7.03899 13.7891 7.41406 13.4141C7.78913 13.039 8 12.5304 8 12ZM10 12C10 13.0609 9.57827 14.078 8.82812 14.8281C8.07798 15.5783 7.06087 16 6 16C4.93913 16 3.92202 15.5783 3.17188 14.8281C2.42173 14.078 2 13.0609 2 12C2 10.9391 2.42173 9.92202 3.17188 9.17188C3.92202 8.42173 4.93913 8 6 8C7.06087 8 8.07798 8.42173 8.82812 9.17188C9.57827 9.92202 10 10.9391 10 12Z" fill="black"/>
<path d="M20 6C20 5.46957 19.7891 4.96101 19.4141 4.58594C19.039 4.21087 18.5304 4 18 4C17.4696 4 16.961 4.21087 16.5859 4.58594C16.2109 4.96101 16 5.46957 16 6C16 6.53043 16.2109 7.03899 16.5859 7.41406C16.961 7.78913 17.4696 8 18 8C18.5304 8 19.039 7.78913 19.4141 7.41406C19.7891 7.03899 20 6.53043 20 6ZM22 6C22 7.06087 21.5783 8.07798 20.8281 8.82812C20.078 9.57827 19.0609 10 18 10C16.9391 10 15.922 9.57827 15.1719 8.82812C14.4217 8.07798 14 7.06087 14 6C14 4.93913 14.4217 3.92202 15.1719 3.17188C15.922 2.42173 16.9391 2 18 2C19.0609 2 20.078 2.42173 20.8281 3.17188C21.5783 3.92202 22 4.93913 22 6Z" fill="black"/>
<path d="M20 18C20 17.4696 19.7891 16.961 19.4141 16.5859C19.039 16.2109 18.5304 16 18 16C17.4696 16 16.961 16.2109 16.5859 16.5859C16.2109 16.961 16 17.4696 16 18C16 18.5304 16.2109 19.039 16.5859 19.4141C16.961 19.7891 17.4696 20 18 20C18.5304 20 19.039 19.7891 19.4141 19.4141C19.7891 19.039 20 18.5304 20 18ZM22 18C22 19.0609 21.5783 20.078 20.8281 20.8281C20.078 21.5783 19.0609 22 18 22C16.9391 22 15.922 21.5783 15.1719 20.8281C14.4217 20.078 14 19.0609 14 18C14 16.9391 14.4217 15.922 15.1719 15.1719C15.922 14.4217 16.9391 14 18 14C19.0609 14 20.078 14.4217 20.8281 15.1719C21.5783 15.922 22 16.9391 22 18Z" fill="black"/>
<path d="M14.8416 6.41112C15.3326 6.15819 15.9363 6.35081 16.1893 6.84178C16.4421 7.33273 16.2486 7.93555 15.7576 8.18846L9.158 11.5888C8.66719 11.8417 8.06439 11.6488 7.81132 11.1582C7.5584 10.6672 7.75102 10.0635 8.24199 9.81053L14.8416 6.41112Z" fill="black"/>
<path d="M7.81135 12.8417C8.06432 12.3509 8.66712 12.1582 9.15803 12.4111L15.7576 15.8105C16.2486 16.0634 16.4422 16.6672 16.1893 17.1582C15.9363 17.6489 15.3325 17.8417 14.8416 17.5888L8.24201 14.1884C7.75117 13.9355 7.55845 13.3327 7.81135 12.8417Z" fill="black"/>
</svg>
